<svg xmlns="http://www.w3.org/2000/svg" viewBox="0 0 112.22 112.22"><defs><style>.cls-1{fill:#c61a27;}.cls-2{fill:#868686;}.cls-3{fill:#b1b1b1;}</style></defs><g id="Capa_2" data-name="Capa 2"><g id="Capa_1-2" data-name="Capa 1"><path class="cls-1" d="M96.42,112.22H15.8A15.82,15.82,0,0,1,0,96.42V15.8A15.82,15.82,0,0,1,15.8,0H96.42a15.82,15.82,0,0,1,15.8,15.8V96.42A15.82,15.82,0,0,1,96.42,112.22ZM15.8,6.45A9.35,9.35,0,0,0,6.45,15.8V96.42a9.36,9.36,0,0,0,9.35,9.35H96.42a9.37,9.37,0,0,0,9.35-9.35V15.8a9.36,9.36,0,0,0-9.35-9.35Z"/><circle class="cls-2" cx="56.11" cy="52.78" r="41.93"/><path class="cls-3" d="M65.75,32.91H60.68V26.3h-9v6.61H46.23a3.51,3.51,0,0,0-3.51,3.51V52.78l2.79,2.78,6.59,6.6,1.46,1.46a3.66,3.66,0,0,0,5.19,0l1.48-1.53,6.4-6.58,2.63-2.69V36.42A3.51,3.51,0,0,0,65.75,32.91ZM50.68,46.12a5.49,5.49,0,1,1,5.49,5.49A5.49,5.49,0,0,1,50.68,46.12Z"/><path class="cls-3" d="M52.1,62.16l-5.87,10-4.81,8.2L31.34,97.59l-5.75,3.6a1.18,1.18,0,0,1-1.8-1V93.11L45.51,55.56Z"/><path class="cls-3" d="M88.44,93.13V100a1.32,1.32,0,0,1-2,1.12l-5.77-3.57L60.23,62.05l6.4-6.58Z"/><path class="cls-3" d="M87.46,52.78a31.31,31.31,0,0,1-46,27.6l4.81-8.2a21.59,21.59,0,0,0,9.94,2.38A21.81,21.81,0,0,0,78,52.78Z"/></g></g></svg>