<svg xmlns="http://www.w3.org/2000/svg" viewBox="0 0 112.22 112.22"><defs><style>.cls-1{fill:#868686;}.cls-2{fill:#c61a27;}</style></defs><g id="Capa_2" data-name="Capa 2"><g id="Capa_1-2" data-name="Capa 1"><path class="cls-1" d="M11.49,47.46c2-9.89,10.87-17,20.86-17.3,9.2-.3,18,6.34,20.43,15.7.88,3.46,1,7.11,1.49,10.87H13.85a63.14,63.14,0,0,0,1,7.88c3.79,14.56,17.6,16.76,27.38,11.45,3.54-1.93,5.47-5.25,6.69-9,.87-2.69,1.55-3.06,4.38-2.5A20.52,20.52,0,0,1,47,76.91c-9.89,9-31.92,7-35.83-11.82A53.81,53.81,0,0,1,11.49,47.46Zm2.95,5.95H50c.71-10.6-7.51-19.82-17.4-19.66C22.07,33.93,13.45,43.21,14.44,53.41Z"/><path class="cls-1" d="M97.55,32c-2.7,3.58-5.36,7.1-8,10.62-2.53,3.31-5.07,6.61-7.6,9.93-1.71,2.22-1.72,2.73,0,5Q90,68.26,98,79c.37.5.7,1,1.09,1.61-3.06.91-4.76.28-6.76-2.47-4-5.46-7.9-10.94-11.85-16.41-.89-1.23-1.81-2.45-2.87-3.88L69.57,68.69l-7.2,9.74A5.42,5.42,0,0,1,56,80.71C62.41,72.09,68.73,63.59,75.13,55L57.52,32c2.83-1.09,4.76-.54,6.71,2.05,4,5.39,8,10.83,12,16.25.43.58.87,1.14,1.39,1.83,4.48-6,8.83-11.81,13.2-17.62C93.07,31.59,94.52,31,97.55,32Z"/><path class="cls-2" d="M96.42,112.22H15.8A15.82,15.82,0,0,1,0,96.42V15.8A15.82,15.82,0,0,1,15.8,0H96.42a15.82,15.82,0,0,1,15.8,15.8V96.42A15.82,15.82,0,0,1,96.42,112.22ZM15.8,6.45A9.35,9.35,0,0,0,6.45,15.8V96.42a9.36,9.36,0,0,0,9.35,9.35H96.42a9.36,9.36,0,0,0,9.35-9.35V15.8a9.35,9.35,0,0,0-9.35-9.35Z"/></g></g></svg>