<svg xmlns="http://www.w3.org/2000/svg" viewBox="0 0 112.22 112.22"><defs><style>.cls-1{fill:#868686;}.cls-2{fill:#b1b1b1;}.cls-3{fill:#c61a27;}</style></defs><g id="Capa_2" data-name="Capa 2"><g id="Capa_1-2" data-name="Capa 1"><path class="cls-1" d="M23.88,22.2l5.59,65.64,26.87,7.4,26.24-7.07,5.76-66Zm14.53,42h8.16l.55,6.34L56.18,73h0l8.91-2.4L66,60.05H38L35.87,35.73l20.46,0H76.25l-.65,8.12-19.3,0-11.63,0,.69,8.3H75L72.64,76.88l-16.45,4.5h0L39.43,76.84Z"/><polygon class="cls-2" points="65.95 60.05 65.12 70.62 56.21 73.02 56.25 60.05 65.95 60.05"/><polygon class="cls-2" points="82.39 27.79 77.34 83.89 56.16 90.05 56.19 81.38 72.64 76.88 74.96 52.06 56.28 52.06 56.3 43.78 75.6 43.82 76.25 35.7 56.33 35.71 56.35 27.69 82.39 27.79"/><path class="cls-3" d="M96.42,112.22H15.8A15.82,15.82,0,0,1,0,96.42V15.8A15.82,15.82,0,0,1,15.8,0H96.42a15.82,15.82,0,0,1,15.8,15.8V96.42A15.82,15.82,0,0,1,96.42,112.22ZM15.8,6.45A9.35,9.35,0,0,0,6.45,15.8V96.42a9.36,9.36,0,0,0,9.35,9.35H96.42a9.37,9.37,0,0,0,9.35-9.35V15.8a9.36,9.36,0,0,0-9.35-9.35Z"/></g></g></svg>