<svg xmlns="http://www.w3.org/2000/svg" viewBox="0 0 112.22 112.22"><defs><style>.cls-1{fill:#868686;}.cls-2{fill:#c61a27;}</style></defs><g id="Capa_2" data-name="Capa 2"><g id="Capa_1-2" data-name="Capa 1"><path class="cls-1" d="M85.87,20.53H26.34a6,6,0,0,0-5.95,5.95V85.75a5.94,5.94,0,0,0,5.95,5.93H85.87a5.94,5.94,0,0,0,5.95-5.93V26.48A6,6,0,0,0,85.87,20.53Zm-26.56,45c0,3.54,0,7.08,0,10.63A13.76,13.76,0,0,1,59,79.2,8.18,8.18,0,0,1,53,85.86a13,13,0,0,1-8-.21,10.12,10.12,0,0,1-5.69-5.27.17.17,0,0,1,.07-.25c1.72-1,3.44-2.08,5.15-3.12.18-.11.22,0,.28.1a16.44,16.44,0,0,0,1.07,1.68,4,4,0,0,0,3.91,1.53,2.73,2.73,0,0,0,2.46-1.77,4.88,4.88,0,0,0,.31-1.46c0-.54,0-1.1,0-1.65q0-10.87,0-21.75c0-.28.05-.37.34-.36q3,0,6,0c.27,0,.35.05.35.33C59.29,57.61,59.31,61.56,59.31,65.5ZM85.76,80.18a8.41,8.41,0,0,1-4.91,5.11,16.48,16.48,0,0,1-10.9.28,12.12,12.12,0,0,1-6.9-5.8.32.32,0,0,1,.13-.42c1.66-1,3.3-1.91,4.94-2.88a.29.29,0,0,1,.41.1,8.39,8.39,0,0,0,2.75,2.87,7,7,0,0,0,4.36.93,5.46,5.46,0,0,0,2-.5A3,3,0,0,0,79,75.23,4.9,4.9,0,0,0,77.46,74a39.79,39.79,0,0,0-4.14-1.92,22.5,22.5,0,0,1-4.56-2.45,8.79,8.79,0,0,1-3.69-6,9.09,9.09,0,0,1,1.21-6.59,8.86,8.86,0,0,1,5.58-3.78A12,12,0,0,1,74.67,53,11.75,11.75,0,0,1,80,54a10.1,10.1,0,0,1,4.19,4.15c.11.19,0,.21-.14.26L80,61.08c-.26.16-.53.32-.78.49s-.21.07-.28-.07a5.87,5.87,0,0,0-1.49-1.82,4.15,4.15,0,0,0-4.27-.55,3,3,0,0,0-.6,4.94,11.3,11.3,0,0,0,2.6,1.47c1.72.77,3.48,1.45,5.13,2.37a11.73,11.73,0,0,1,4.77,4.19,7.57,7.57,0,0,1,1,2.84A10.57,10.57,0,0,1,85.76,80.18Z"/><path class="cls-2" d="M96.42,112.22H15.8A15.82,15.82,0,0,1,0,96.42V15.8A15.82,15.82,0,0,1,15.8,0H96.42a15.82,15.82,0,0,1,15.8,15.8V96.42A15.82,15.82,0,0,1,96.42,112.22ZM15.8,6.45A9.35,9.35,0,0,0,6.45,15.8V96.42a9.36,9.36,0,0,0,9.35,9.35H96.42a9.37,9.37,0,0,0,9.35-9.35V15.8a9.36,9.36,0,0,0-9.35-9.35Z"/></g></g></svg>