<svg xmlns="http://www.w3.org/2000/svg" viewBox="0 0 112.22 112.22"><defs><style>.cls-1{fill:#c61a27;}.cls-2{fill:#868686;}</style></defs><g id="Capa_2" data-name="Capa 2"><g id="Capa_1-2" data-name="Capa 1"><path class="cls-1" d="M96.42,112.22H15.8A15.82,15.82,0,0,1,0,96.42V15.8A15.82,15.82,0,0,1,15.8,0H96.42a15.82,15.82,0,0,1,15.8,15.8V96.42A15.82,15.82,0,0,1,96.42,112.22ZM15.8,6.45A9.35,9.35,0,0,0,6.45,15.8V96.42a9.35,9.35,0,0,0,9.35,9.35H96.42a9.35,9.35,0,0,0,9.35-9.35V15.8a9.35,9.35,0,0,0-9.35-9.35Z"/><path class="cls-2" d="M70,33.29a35.44,35.44,0,0,0,.2,4.94,14.76,14.76,0,0,0,2.69,5.92c1.3,1.85,2.81,3.53,4.17,5.33A32.34,32.34,0,0,1,83,60.83a16.7,16.7,0,0,1-.08,9.06c-.07.22-.22.42.13.58a4.34,4.34,0,0,1,2.37,3.23c.1.42.21.84.3,1.26a6.23,6.23,0,0,0,1.6,3.27,6.74,6.74,0,0,1,1.48,2.36A2.86,2.86,0,0,1,87.93,84a9,9,0,0,1-2,1.27L82.9,86.81A13.67,13.67,0,0,0,78.84,90a10.88,10.88,0,0,1-6.4,3.82,6.16,6.16,0,0,1-6.92-3.91.66.66,0,0,0-.78-.53,16.23,16.23,0,0,1-3.94-.32,21.23,21.23,0,0,0-8.44.34,4.54,4.54,0,0,1-.51.09,3.69,3.69,0,0,0-3.2,1.66A5,5,0,0,1,44.71,93a12,12,0,0,1-6.65-1.37A19.45,19.45,0,0,0,31,89.73a22,22,0,0,1-3-.45c-2.48-.61-3.37-1.93-3-4.46A1.52,1.52,0,0,1,25,84.5c.85-2,.6-4,.31-6a4.06,4.06,0,0,1,2.87-4.77c.19-.07.37-.15.56-.2a5.41,5.41,0,0,0,3.35-2.47,12.77,12.77,0,0,1,1.23-1.52.74.74,0,0,0,.2-.64A18.49,18.49,0,0,1,35,59.75a50.69,50.69,0,0,1,8-12.89,16.85,16.85,0,0,0,3.71-11.37,71.17,71.17,0,0,1-.18-8.39,17.34,17.34,0,0,1,.91-4.38,9.21,9.21,0,0,1,6-5.83,16,16,0,0,1,7.7-.52c3.84.65,6.28,3,7.6,6.6A24.65,24.65,0,0,1,70,30.3C70.07,31.3,70,32.3,70,33.29ZM46.82,80.77c.59.8,1.2,1.59,1.76,2.41a3.06,3.06,0,0,0,.88.84,12.94,12.94,0,0,0,5.16,1.83A16.34,16.34,0,0,0,66,82.76a.73.73,0,0,0,.32-.39,21,21,0,0,0,1-4.63,32.74,32.74,0,0,1,.51-5c.41-2,1.12-3.76,3.14-4.63.26-.11.25-.32.3-.53a2.54,2.54,0,0,1,3.3-2.23,11.64,11.64,0,0,1,4.78,2.08,2.35,2.35,0,0,1,1.2,2.35c0,.12-.06.28.13.3s.36.06.44-.16a2.16,2.16,0,0,0,.1-.44A2.86,2.86,0,0,0,80.14,67,11,11,0,0,0,77,65a.6.6,0,0,1-.41-.83,8.06,8.06,0,0,0,.16-2.45,17.22,17.22,0,0,0-5.16-10.86c-.17-.18-.41-.61-.63-.39s.17.52.37.71a14.52,14.52,0,0,1,2.84,4,11.9,11.9,0,0,1,1.24,7.68c-.25,1.28-.26,1.25-1.49,1.2-.48,0-.62-.2-.7-.62a26.46,26.46,0,0,0-2.29-6.89,100.56,100.56,0,0,1-5.34-12.18c-.52-1.51-1-3-1.45-4.67a5.9,5.9,0,0,1-2.53,1.9,16.63,16.63,0,0,0-3.05,1.58c-2.14,1.34-5,1.75-7.4-.71A8.47,8.47,0,0,0,49,41a23.73,23.73,0,0,1-.77,4.26A66.52,66.52,0,0,1,44,56a32,32,0,0,0-2.62,7.6c-.22,1.2-.32,2.42-.44,3.76a8.49,8.49,0,0,1-1.62-5.76,18.79,18.79,0,0,1,2.45-7.67c.13-.24.31-.46.45-.7s.19-.34,0-.44-.24.15-.3.26a26.13,26.13,0,0,0-3.48,8.38,8.25,8.25,0,0,0,3.9,9.16l.77.49A19.83,19.83,0,0,1,48,75.38,6.26,6.26,0,0,1,49.3,78a2.06,2.06,0,0,1-1.77,2.66A1.65,1.65,0,0,0,46.82,80.77ZM43.73,92c.37,0,.74,0,1.1-.07a4.46,4.46,0,0,0,4.24-3.66,4.7,4.7,0,0,0-.54-3.14,27.27,27.27,0,0,0-3-4.3,24.36,24.36,0,0,1-2.42-3.37c-1-1.81-2-3.62-3-5.41a6.06,6.06,0,0,0-2.24-2.31,2.93,2.93,0,0,0-3.92.6,5.89,5.89,0,0,0-.77,1,7.45,7.45,0,0,1-4.45,3.34c-2,.62-2.71,1.78-2.39,3.86s.55,4.12-.32,6.13a2.61,2.61,0,0,0-.1.57,2.31,2.31,0,0,0,1.89,3,18,18,0,0,0,3.26.51,19.59,19.59,0,0,1,7.34,2A11.49,11.49,0,0,0,43.73,92ZM71.17,69.13a3.74,3.74,0,0,0-1.9,2.26,14.48,14.48,0,0,0-.78,4.47,24.39,24.39,0,0,1-1.16,6.83,23.82,23.82,0,0,0-1,4.1,5,5,0,0,0,6.24,5.95,10.26,10.26,0,0,0,5.69-3.64,13.07,13.07,0,0,1,3.67-3c.82-.45,1.66-.85,2.49-1.27a16.79,16.79,0,0,0,2.49-1.38,2,2,0,0,0,.72-2.87,8.59,8.59,0,0,0-1.44-2.08,5.73,5.73,0,0,1-1.35-2.62A18.83,18.83,0,0,0,84.06,73a2.9,2.9,0,0,0-2.67-1.94c-.33,0-.65,0-1,0a1.13,1.13,0,0,0-.9.38,8.24,8.24,0,0,1-3.57,2,3.22,3.22,0,0,1-4-1.69A6.74,6.74,0,0,1,71.17,69.13ZM55,43.66a5.93,5.93,0,0,0,3.41-1.11,12,12,0,0,1,2.64-1.36A5.5,5.5,0,0,0,62.9,40.1c1.84-1.62,1.57-3.35-.7-4.27a41.57,41.57,0,0,1-4.37-1.95,5,5,0,0,0-6,.47c-1,.88-2.11,1.72-3.19,2.55a1.59,1.59,0,0,0-.49,2.19,3.94,3.94,0,0,0,1.5,1.58,16.18,16.18,0,0,1,2.41,1.87A4.1,4.1,0,0,0,55,43.66ZM58.37,33.3a4,4,0,0,1,.43-2.45,1.53,1.53,0,0,1,1.42-1,1.49,1.49,0,0,1,1.29,1.05,3.45,3.45,0,0,1-.45,3.79c.54.21,1.06.4,1.57.63.29.14.38,0,.51-.21a6,6,0,0,0-.44-7.09A3.19,3.19,0,0,0,57.83,28a5.51,5.51,0,0,0-1.43,4.44c0,.26.17.32.36.38Zm-6.28.05a11.26,11.26,0,0,1,1.15-.49.45.45,0,0,0,.36-.52A5.9,5.9,0,0,0,52.74,29a2.41,2.41,0,0,0-2.16-1.33,2.3,2.3,0,0,0-2,1.56,6,6,0,0,0,.32,5.72,1.62,1.62,0,0,0,.32.41c.45.38.6-.19.89-.31s.22-.26.05-.49a3.36,3.36,0,0,1-.5-3.14,1.12,1.12,0,0,1,.89-.93c.57-.07.86.34,1.1.76A4.39,4.39,0,0,1,52.09,33.35Z"/><path class="cls-2" d="M54.71,41.43a6.65,6.65,0,0,1-2.05-.35,9.83,9.83,0,0,1-3.58-2.5c-.2-.2-.41-.55-.17-.74s.39.19.54.37c2,2.25,4.37,3.42,7,2.44a13.28,13.28,0,0,0,5.24-3.24c.14-.15.31-.3.5-.15s0,.36-.11.49A9.16,9.16,0,0,1,60,39.41,12,12,0,0,1,54.71,41.43Z"/><path class="cls-2" d="M56.38,34.38a1.27,1.27,0,0,1,.9.38.19.19,0,0,1-.06.28c-.33.22-.57,0-.82-.17s-.5,0-.43-.33S56.26,34.41,56.38,34.38Z"/><path class="cls-2" d="M53.7,34.39c.11,0,.33,0,.36.19s-.19.19-.31.24-.34.19-.51.26a.36.36,0,0,1-.5-.13c-.1-.21.09-.31.24-.38A1.37,1.37,0,0,1,53.7,34.39Z"/></g></g></svg>