<svg xmlns="http://www.w3.org/2000/svg" viewBox="0 0 112.22 112.22"><defs><style>.cls-1{fill:#868686;}.cls-2{fill:#c61a27;}</style></defs><g id="Capa_2" data-name="Capa 2"><g id="Capa_1-2" data-name="Capa 1"><path class="cls-1" d="M65.68,30.93c-1.29.3-2.43.55-3.58.83L38.5,37.4c-1.16.28-1.16.27-1.16,1.5V75.47a4.42,4.42,0,0,0,0,.63c.08.53-.17.77-.66,1-4.46,1.72-8.91,3.48-13.37,5.22a2,2,0,0,1-.4.12c-.23-.25-.14-.53-.14-.78q0-23.18,0-46.34c0-.8,0-.8.74-1.08L65.06,18.6a1.71,1.71,0,0,1,1.2-.05Q77.48,21.81,88.72,25c.74.21.74.22.74,1,0,1.57,0,3.13,0,4.7v60c0,1,0,1-.92,1.26q-11.1,3.06-22.19,6.13A2.07,2.07,0,0,1,65,98.11Q44.62,90.57,24.26,83.05a1.78,1.78,0,0,1-.72-.39l3.21.41,10,1.38c3.22.45,6.44.91,9.66,1.35,2.78.39,5.56.75,8.34,1.13L63.1,88.1l2.11.26c.3,0,.45-.07.45-.38s0-.35,0-.53q0-27.75,0-55.48Z"/><path class="cls-2" d="M96.42,112.22H15.8A15.82,15.82,0,0,1,0,96.42V15.8A15.82,15.82,0,0,1,15.8,0H96.42a15.82,15.82,0,0,1,15.8,15.8V96.42A15.82,15.82,0,0,1,96.42,112.22ZM15.8,6.45A9.35,9.35,0,0,0,6.45,15.8V96.42a9.36,9.36,0,0,0,9.35,9.35H96.42a9.37,9.37,0,0,0,9.35-9.35V15.8a9.36,9.36,0,0,0-9.35-9.35Z"/></g></g></svg>