<svg xmlns="http://www.w3.org/2000/svg" viewBox="0 0 112.22 112.22"><defs><style>.cls-1{fill:#868686;}.cls-2{fill:#c61a27;}</style></defs><g id="Capa_2" data-name="Capa 2"><g id="Capa_1-2" data-name="Capa 1"><path class="cls-1" d="M87.47,41.54c-1.4-.54-2.87-1-4.41-1.49.34-1.47.63-2.91.85-4.31,1.48-9.49-.23-16.17-4.81-18.81s-11.22-.79-18.7,5.24c-1.37,1.1-2.73,2.32-4.1,3.65-1.37-1.34-2.75-2.57-4.12-3.68-7.48-6-14.12-7.89-18.7-5.25s-6.29,9.34-4.81,18.82c.21,1.38.49,2.79.83,4.24q-2.49.72-4.76,1.59C15.78,45,10.85,49.76,10.85,55s4.93,10,13.89,13.48a58.36,58.36,0,0,0,5.6,1.83A61.38,61.38,0,0,0,29,76.5c-1.48,9.49.23,16.17,4.81,18.82a9,9,0,0,0,4.59,1.18c4,0,8.85-2.19,14.11-6.42,1.25-1,2.51-2.13,3.76-3.33,1.25,1.19,2.49,2.29,3.74,3.3,5.26,4.24,10.1,6.41,14.11,6.41a9,9,0,0,0,4.59-1.17C83.32,92.65,85,86,83.55,76.47a63.46,63.46,0,0,0-1.33-6.23c1.84-.52,3.6-1.09,5.25-1.73,9-3.43,13.9-8.22,13.9-13.48S96.43,45,87.47,41.54ZM62.7,25c4.56-3.68,8.67-5.61,11.77-5.61a5.47,5.47,0,0,1,2.79.68c3.14,1.81,4.24,7.31,3,15.08-.2,1.27-.45,2.58-.77,3.93A93.79,93.79,0,0,0,65.84,37a91.3,91.3,0,0,0-7-8.52C60.14,27.2,61.43,26.06,62.7,25ZM56.3,81.54a84.34,84.34,0,0,1-6.78-8.22q3.24.2,6.59.19c2.36,0,4.7-.07,7-.21A86,86,0,0,1,56.3,81.54Zm-.19-11.7c-3.17,0-6.28-.13-9.29-.38q-1.89-2.85-3.65-5.9c-1.36-2.35-2.61-4.72-3.75-7.07,1.23-2.61,2.61-5.23,4.11-7.84,1.66-2.87,3.41-5.62,5.23-8.2,2.4-.16,4.86-.24,7.35-.24s5.22.09,7.74.27c1.81,2.57,3.55,5.29,5.19,8.14,1.51,2.62,2.9,5.25,4.13,7.87-1.14,2.36-2.4,4.74-3.76,7.1-1.16,2-2.37,4-3.61,5.83C62.66,69.7,59.41,69.84,56.11,69.84Zm-18.63-9c.8,1.53,1.63,3.06,2.51,4.58.7,1.2,1.41,2.39,2.14,3.55q-3.75-.49-7.19-1.25C35.66,65.45,36.51,63.15,37.48,60.82Zm0-8.65A84.94,84.94,0,0,1,34,42.57,86.72,86.72,0,0,1,44,40.87c-1.27,1.91-2.5,3.9-3.69,6Q38.82,49.49,37.45,52.17ZM72.58,65.43q1.33-2.3,2.53-4.61,1.44,3.46,2.51,6.8c-2.26.51-4.65.94-7.12,1.28C71.21,67.76,71.9,66.6,72.58,65.43Zm2.56-13.26c-.91-1.8-1.89-3.59-2.92-5.38-1.16-2-2.38-4-3.63-5.88a87.07,87.07,0,0,1,10,1.74c-.59,2-1.29,4.11-2.1,6.22C76.06,50,75.62,51.06,75.14,52.17ZM61,36.64c-1.63-.07-3.27-.1-4.92-.1s-3,0-4.52.09c1.54-2,3.12-3.85,4.71-5.57C57.9,32.78,59.48,34.65,61,36.64ZM35.31,20.07a5.53,5.53,0,0,1,2.8-.68c3.09,0,7.2,1.93,11.76,5.61q1.93,1.56,3.87,3.43a90.75,90.75,0,0,0-7,8.49A93.68,93.68,0,0,0,33.05,39q-.46-2-.75-3.87C31.08,27.38,32.18,21.88,35.31,20.07ZM31.37,66.82q-2.82-.78-5.31-1.73C18.72,62.28,14.52,58.61,14.52,55S18.72,47.78,26.06,45c1.38-.52,2.84-1,4.37-1.46a92.53,92.53,0,0,0,4.93,13A92.73,92.73,0,0,0,31.37,66.82Zm18.87,20.4c-4.57,3.68-8.67,5.61-11.77,5.61a5.44,5.44,0,0,1-2.8-.69c-3.13-1.8-4.23-7.3-3-15.07a57.94,57.94,0,0,1,1.24-5.85A94.31,94.31,0,0,0,44.75,73a95.14,95.14,0,0,0,9,11.2C52.56,85.26,51.39,86.28,50.24,87.22ZM76.9,92.11c-3.13,1.81-8.43,0-14.56-4.92q-1.73-1.39-3.45-3c1.37-1.46,2.74-3,4.09-4.68,1.67-2.06,3.31-4.25,4.89-6.56a92.43,92.43,0,0,0,10.79-1.76A58.88,58.88,0,0,1,79.92,77C81.13,84.81,80,90.31,76.9,92.11Zm9.26-27q-2.34.9-5,1.63-.72-2.27-1.61-4.59-1.06-2.79-2.35-5.63a92.43,92.43,0,0,0,4.9-12.9c1.4.42,2.75.87,4,1.36C93.49,47.78,97.7,51.44,97.7,55S93.49,62.28,86.16,65.09Z"/><circle class="cls-1" cx="56.11" cy="56.09" r="9.87"/><path class="cls-2" d="M96.42,112.22H15.8A15.82,15.82,0,0,1,0,96.42V15.8A15.82,15.82,0,0,1,15.8,0H96.42a15.82,15.82,0,0,1,15.8,15.8V96.42A15.82,15.82,0,0,1,96.42,112.22ZM15.8,6.45A9.35,9.35,0,0,0,6.45,15.8V96.42a9.36,9.36,0,0,0,9.35,9.35H96.42a9.37,9.37,0,0,0,9.35-9.35V15.8a9.36,9.36,0,0,0-9.35-9.35Z"/></g></g></svg>