<svg xmlns="http://www.w3.org/2000/svg" viewBox="0 0 112.22 112.22"><defs><style>.cls-1{fill:#641411;}.cls-2{fill:#575756;}.cls-3{fill:#868686;}</style></defs><g id="Capa_2" data-name="Capa 2"><g id="Capa_1-2" data-name="Capa 1"><path class="cls-1" d="M96.42,112.22H15.8A15.82,15.82,0,0,1,0,96.42V15.8A15.82,15.82,0,0,1,15.8,0H96.42a15.82,15.82,0,0,1,15.8,15.8V96.42A15.82,15.82,0,0,1,96.42,112.22ZM15.8,6.45A9.35,9.35,0,0,0,6.45,15.8V96.42a9.36,9.36,0,0,0,9.35,9.35H96.42a9.37,9.37,0,0,0,9.35-9.35V15.8a9.36,9.36,0,0,0-9.35-9.35Z"/><path class="cls-2" d="M55.66,102.38a8.78,8.78,0,0,1-4.47-1.21L17.92,81.82a7.06,7.06,0,0,1-3.47-6v-39a8,8,0,0,1,4-6.88L52.21,11a8.82,8.82,0,0,1,8.82.07L94.3,30.39a7.06,7.06,0,0,1,3.46,6.06v39a8,8,0,0,1-4,6.89L60,101.23A8.74,8.74,0,0,1,55.66,102.38ZM56.56,14a4.59,4.59,0,0,0-2.32.62L20.47,33.45a3.81,3.81,0,0,0-1.9,3.3v39A2.92,2.92,0,0,0,20,78.27L53.27,97.62a4.72,4.72,0,0,0,4.71,0L91.75,78.77a3.84,3.84,0,0,0,1.9-3.31v-39A2.92,2.92,0,0,0,92.22,34L59,14.6A4.77,4.77,0,0,0,56.56,14Z"/><path class="cls-3" d="M56.05,81.44a25.85,25.85,0,1,1,22.43-38.7L67.06,49.29a12.69,12.69,0,1,0,0,12.57l11.44,6.53A25.91,25.91,0,0,1,56.05,81.44Z"/><path class="cls-2" d="M88.6,54V51.07H86.17V48.63H83.28v2.44H79.94V48.63H77.06v2.44H74.62V54h2.44v3.34H74.62v2.88h2.44v2.44h2.88V60.17h3.34v2.44h2.89V60.17H88.6V57.29H86.17V54Zm-5.32,3.34H79.94V54h3.34Z"/></g></g></svg>