<svg xmlns="http://www.w3.org/2000/svg" viewBox="0 0 112.22 112.22"><defs><style>.cls-1{fill:#575756;}.cls-2{fill:#868686;}.cls-3{fill:#641411;}</style></defs><g id="Capa_2" data-name="Capa 2"><g id="Capa_1-2" data-name="Capa 1"><path class="cls-1" d="M23.88,21.33,29.47,87l26.87,7.4L82.58,87.3l5.76-66Zm14.57,42h8.06l.54,6.51,9.16,2.42h.06l8.91-2.57L66,59.23l-9.78,0L38,59.33l-.69-8.18,18.94.07,10.36,0,.82-8.37H36.56l-.67-8.16,20.44.06,20,.07-3.73,41L56.19,80.7h0L39.29,76Z"/><polygon class="cls-2" points="66.03 59.23 65.18 69.66 56.27 72.23 56.21 72.22 56.25 59.26 66.03 59.23"/><polygon class="cls-2" points="67.46 42.89 66.64 51.26 56.28 51.22 56.3 42.89 67.46 42.89"/><polygon class="cls-2" points="82.39 26.92 77.34 83.01 56.16 89.18 56.19 80.7 72.55 75.9 76.28 34.86 56.33 34.79 56.35 26.82 82.39 26.92"/><path class="cls-3" d="M96.42,112.22H15.8A15.82,15.82,0,0,1,0,96.42V15.8A15.82,15.82,0,0,1,15.8,0H96.42a15.82,15.82,0,0,1,15.8,15.8V96.42A15.82,15.82,0,0,1,96.42,112.22ZM15.8,6.45A9.35,9.35,0,0,0,6.45,15.8V96.42a9.36,9.36,0,0,0,9.35,9.35H96.42a9.37,9.37,0,0,0,9.35-9.35V15.8a9.36,9.36,0,0,0-9.35-9.35Z"/></g></g></svg>