<svg xmlns="http://www.w3.org/2000/svg" viewBox="0 0 112.22 112.22"><defs><style>.cls-1{fill:#641411;}.cls-2{fill:#575756;}</style></defs><g id="Capa_2" data-name="Capa 2"><g id="Capa_1-2" data-name="Capa 1"><path class="cls-1" d="M96.42,112.22H15.8A15.82,15.82,0,0,1,0,96.42V15.8A15.82,15.82,0,0,1,15.8,0H96.42a15.82,15.82,0,0,1,15.8,15.8V96.42A15.82,15.82,0,0,1,96.42,112.22ZM15.8,6.45A9.35,9.35,0,0,0,6.45,15.8V96.42a9.36,9.36,0,0,0,9.35,9.35H96.42a9.36,9.36,0,0,0,9.35-9.35V15.8a9.35,9.35,0,0,0-9.35-9.35Z"/><path class="cls-2" d="M90.87,62.05,60,92.91a5.55,5.55,0,0,1-7.84,0L21.35,62a5.53,5.53,0,0,1,0-7.84L43.08,32.54l7.76,7.76a5.67,5.67,0,0,0,3.38,7.81V68.39a5.67,5.67,0,1,0,3.79,0V48l.37-.16,7.95,7.95a5.76,5.76,0,0,0-.55,2.46,5.65,5.65,0,1,0,3.16-5.09L61,45.23a5.59,5.59,0,0,0,.59-2.51,5.68,5.68,0,0,0-8.16-5.09l-7.72-7.75,6.54-6.52a5.55,5.55,0,0,1,7.84,0L90.88,54.22A5.55,5.55,0,0,1,90.87,62.05Z"/></g></g></svg>