<svg xmlns="http://www.w3.org/2000/svg" viewBox="0 0 112.22 112.22"><defs><style>.cls-1{fill:#641411;}.cls-2{fill:#575756;}</style></defs><g id="Capa_2" data-name="Capa 2"><g id="Capa_1-2" data-name="Capa 1"><path class="cls-1" d="M96.42,112.22H15.8A15.82,15.82,0,0,1,0,96.42V15.8A15.82,15.82,0,0,1,15.8,0H96.42a15.82,15.82,0,0,1,15.8,15.8V96.42A15.82,15.82,0,0,1,96.42,112.22ZM15.8,6.45A9.35,9.35,0,0,0,6.45,15.8V96.42a9.35,9.35,0,0,0,9.35,9.35H96.42a9.35,9.35,0,0,0,9.35-9.35V15.8a9.35,9.35,0,0,0-9.35-9.35Z"/><path class="cls-2" d="M70.42,31.53a35.44,35.44,0,0,0,.2,4.94,14.74,14.74,0,0,0,2.78,5.94c1.35,1.84,2.9,3.53,4.3,5.33a32.06,32.06,0,0,1,6.06,11.37,16.18,16.18,0,0,1-.08,9.07c-.07.22-.22.43.14.58A4.37,4.37,0,0,1,86.26,72c.11.42.22.84.31,1.26a6.34,6.34,0,0,0,1.65,3.28,6.72,6.72,0,0,1,1.53,2.36,2.8,2.8,0,0,1-.86,3.42,9.56,9.56,0,0,1-2,1.27c-1.05.52-2.12,1-3.17,1.55a13.92,13.92,0,0,0-4.19,3.19,11.35,11.35,0,0,1-6.6,3.83,6.38,6.38,0,0,1-7.14-3.92.69.69,0,0,0-.82-.53,17.94,17.94,0,0,1-4.07-.32,22.22,22.22,0,0,0-8.71.34,4.71,4.71,0,0,1-.52.09,3.83,3.83,0,0,0-3.3,1.66c-.88,1.29-2.48,1.7-4.07,1.84A12.61,12.61,0,0,1,37.41,90a20.32,20.32,0,0,0-7.33-1.89A25.07,25.07,0,0,1,27,87.6c-2.57-.6-3.48-1.93-3.1-4.46a1.52,1.52,0,0,1,.06-.32c.88-2,.62-4,.32-6-.35-2.35.68-3.92,3-4.78a4.77,4.77,0,0,1,.57-.2,5.53,5.53,0,0,0,3.46-2.48,12.09,12.09,0,0,1,1.27-1.51.74.74,0,0,0,.2-.65A18,18,0,0,1,34.28,58,50.34,50.34,0,0,1,42.5,45.12a16.62,16.62,0,0,0,3.82-11.4,69.24,69.24,0,0,1-.18-8.4,16.56,16.56,0,0,1,.94-4.38,9.38,9.38,0,0,1,6.22-5.85,17,17,0,0,1,8-.51,9.63,9.63,0,0,1,7.84,6.6,23.37,23.37,0,0,1,1.32,7.35C70.46,29.53,70.42,30.53,70.42,31.53Zm-24,47.55c.62.81,1.25,1.6,1.83,2.42a2.78,2.78,0,0,0,.91.83,13.4,13.4,0,0,0,5.32,1.84,17.27,17.27,0,0,0,11.76-3.09.71.71,0,0,0,.32-.4,19.88,19.88,0,0,0,1-4.63,30.57,30.57,0,0,1,.53-5c.42-2,1.15-3.77,3.24-4.64.27-.11.26-.32.31-.53.4-1.82,1.5-2.55,3.4-2.23A12.25,12.25,0,0,1,80,65.68,2.32,2.32,0,0,1,81.28,68c0,.13-.07.28.13.3s.38.07.46-.16a1.64,1.64,0,0,0,.09-.44,2.8,2.8,0,0,0-1.1-2.47,11.84,11.84,0,0,0-3.29-2c-.44-.19-.54-.39-.43-.83A7.84,7.84,0,0,0,77.31,60C77,55.69,75,52.18,72,49.12c-.18-.18-.43-.61-.65-.39s.17.52.37.72a14.66,14.66,0,0,1,2.94,4,11.61,11.61,0,0,1,1.28,7.7c-.26,1.28-.26,1.25-1.54,1.2-.49,0-.63-.21-.72-.63a26,26,0,0,0-2.37-6.9,99.66,99.66,0,0,1-5.51-12.2c-.54-1.51-1-3-1.49-4.68a6.19,6.19,0,0,1-2.62,1.91,16.49,16.49,0,0,0-3.14,1.58c-2.22,1.34-5.16,1.75-7.65-.71a8.54,8.54,0,0,0-2.15-1.48A22.84,22.84,0,0,1,48,43.53a66,66,0,0,1-4.42,10.75,31.3,31.3,0,0,0-2.7,7.6c-.23,1.2-.33,2.42-.46,3.77a8.32,8.32,0,0,1-1.67-5.77,18.55,18.55,0,0,1,2.53-7.68c.14-.24.32-.46.47-.7s.19-.35,0-.45-.24.16-.31.26a26.26,26.26,0,0,0-3.59,8.4,8.18,8.18,0,0,0,4,9.17l.79.5a20,20,0,0,1,5.08,4.3A6.34,6.34,0,0,1,49,76.27a2.07,2.07,0,0,1-1.84,2.66A1.77,1.77,0,0,0,46.45,79.08ZM43.27,90.33c.38,0,.76,0,1.14-.07a4.51,4.51,0,0,0,3.81-6.81,26.78,26.78,0,0,0-3.12-4.3,23.91,23.91,0,0,1-2.49-3.38c-1-1.81-2-3.63-3.06-5.42A6.1,6.1,0,0,0,37.24,68a3.07,3.07,0,0,0-4.05.6,6.08,6.08,0,0,0-.8,1A7.71,7.71,0,0,1,27.8,73c-2.08.61-2.79,1.78-2.47,3.86S25.9,80.94,25,83a2.13,2.13,0,0,0-.11.57,2.32,2.32,0,0,0,2,3,20.17,20.17,0,0,0,3.37.51,20.6,20.6,0,0,1,7.58,2A12.12,12.12,0,0,0,43.27,90.33ZM71.6,67.42a3.81,3.81,0,0,0-2,2.27,14.28,14.28,0,0,0-.81,4.47A23.73,23.73,0,0,1,67.63,81a24.24,24.24,0,0,0-1,4.11C66,89,69,91.88,73,91.07a10.63,10.63,0,0,0,5.88-3.65,13.17,13.17,0,0,1,3.79-3c.84-.45,1.7-.85,2.56-1.27a17.73,17.73,0,0,0,2.58-1.38,1.94,1.94,0,0,0,.73-2.88,8.21,8.21,0,0,0-1.48-2.08,5.65,5.65,0,0,1-1.39-2.63,21.93,21.93,0,0,0-.8-2.88,3,3,0,0,0-2.77-1.94c-.33,0-.67,0-1,0a1.19,1.19,0,0,0-.94.37,8.61,8.61,0,0,1-3.68,2.06,3.4,3.4,0,0,1-4.13-1.7A6.8,6.8,0,0,1,71.6,67.42ZM54.92,41.91a6.26,6.26,0,0,0,3.52-1.11,12.25,12.25,0,0,1,2.73-1.37,5.59,5.59,0,0,0,1.89-1.09c1.9-1.62,1.62-3.35-.73-4.27a42.68,42.68,0,0,1-4.51-2,5.24,5.24,0,0,0-6.18.47c-1.08.88-2.18,1.72-3.3,2.56a1.57,1.57,0,0,0-.5,2.19,4,4,0,0,0,1.55,1.59,16.81,16.81,0,0,1,2.49,1.86A4.27,4.27,0,0,0,54.92,41.91Zm3.46-10.37a4,4,0,0,1,.44-2.46,1.61,1.61,0,0,1,1.47-1,1.54,1.54,0,0,1,1.33,1.06,3.36,3.36,0,0,1-.47,3.8c.56.21,1.1.39,1.62.63.31.14.4,0,.53-.22a5.91,5.91,0,0,0-.45-7.09,3.36,3.36,0,0,0-5-.09,5.43,5.43,0,0,0-1.48,4.45c0,.26.18.32.37.38Zm-6.48.05c.45-.19.8-.38,1.18-.5a.47.47,0,0,0,.38-.52,5.76,5.76,0,0,0-.9-3.35,2.48,2.48,0,0,0-2.22-1.34,2.4,2.4,0,0,0-2.06,1.56,5.83,5.83,0,0,0,.34,5.74,1.41,1.41,0,0,0,.33.4c.46.38.61-.18.91-.3s.23-.27,0-.49a3.31,3.31,0,0,1-.51-3.15,1.11,1.11,0,0,1,.91-.93c.59-.07.89.33,1.14.76A4.2,4.2,0,0,1,51.9,31.59Z"/><path class="cls-2" d="M54.6,39.68a7,7,0,0,1-2.11-.36,10.11,10.11,0,0,1-3.7-2.5c-.21-.2-.43-.55-.17-.74s.39.19.55.37c2,2.26,4.52,3.42,7.26,2.45a13.86,13.86,0,0,0,5.41-3.25c.15-.15.32-.31.51-.15s0,.36-.11.49a9.1,9.1,0,0,1-2.14,1.66A12.71,12.71,0,0,1,54.6,39.68Z"/><path class="cls-2" d="M56.33,32.62a1.27,1.27,0,0,1,.92.38.18.18,0,0,1-.06.28c-.34.21-.59,0-.84-.18s-.52,0-.45-.33S56.2,32.64,56.33,32.62Z"/><path class="cls-2" d="M53.56,32.63c.11,0,.34,0,.37.19s-.19.18-.32.24-.35.19-.53.26-.41.07-.51-.14.09-.3.24-.38A1.49,1.49,0,0,1,53.56,32.63Z"/></g></g></svg>