<svg xmlns="http://www.w3.org/2000/svg" viewBox="0 0 112.22 112.22"><defs><style>.cls-1{fill:#868686;}.cls-2{fill:#575756;}.cls-3{fill:#b7c4c2;}.cls-4{fill:#1aa751;}.cls-5{fill:#641411;}</style></defs><g id="Capa_2" data-name="Capa 2"><g id="Capa_1-2" data-name="Capa 1"><path class="cls-1" d="M54.43,89.94C45.08,82.78,38.91,73.6,36.62,62a41.87,41.87,0,0,1-.28-12.74A53.1,53.1,0,0,1,41.76,30.7a46.46,46.46,0,0,1,11-14.07c1.52-1.31,2.78-2.7,2.73-5a2.06,2.06,0,0,1,.45.82,11.46,11.46,0,0,0,.14,2.11c.14,2.86.3,5.72.39,8.58.08,2.46,0,4.93.13,7.39.14,4.46,0,8.93.12,13.4.16,4.86,0,9.73.14,14.59.13,4.26,0,8.53-.21,12.79-.12,2.68-.32,5.36-.45,8-.13,1.27-.24,2.55-.39,3.82A28.28,28.28,0,0,1,54.43,89.94Z"/><path class="cls-2" d="M56.23,79.32c.13-2.68.33-5.36.45-8,.2-4.26.34-8.53.21-12.79-.15-4.86,0-9.73-.14-14.59-.14-4.47,0-8.94-.12-13.4-.08-2.46-.05-4.93-.13-7.39-.09-2.86-.25-5.72-.39-8.58A11.46,11.46,0,0,1,56,12.42c.32.63.66,1.25,1,1.89A19.92,19.92,0,0,0,61.08,20a47.19,47.19,0,0,1,9.76,13.7,57.93,57.93,0,0,1,4.56,14,41.87,41.87,0,0,1,.49,10.61,43,43,0,0,1-6,19.34A37.6,37.6,0,0,1,59.41,89.15a3.5,3.5,0,0,1-1.68-1.91,18.53,18.53,0,0,1-1.35-7.39l-.08-.21Z"/><path class="cls-3" d="M56.23,79.32l.07.32.08.21a18.53,18.53,0,0,0,1.35,7.39,3.5,3.5,0,0,0,1.68,1.91,93.7,93.7,0,0,0-1.84,10.52c0,.3,0,.8-.26.88a4.84,4.84,0,0,1-1.52,0c-.2,0-.16-.29-.18-.46-.24-2.18-.45-4.36-.7-6.54-.14-1.21-.32-2.41-.48-3.61a28.28,28.28,0,0,0,1.41-6.8C56,81.87,56.1,80.59,56.23,79.32Z"/><path class="cls-4" d="M56.38,79.85l-.08-.21Z"/><path class="cls-5" d="M96.42,112.22H15.8A15.82,15.82,0,0,1,0,96.42V15.8A15.82,15.82,0,0,1,15.8,0H96.42a15.82,15.82,0,0,1,15.8,15.8V96.42A15.82,15.82,0,0,1,96.42,112.22ZM15.8,6.45A9.35,9.35,0,0,0,6.45,15.8V96.42a9.36,9.36,0,0,0,9.35,9.35H96.42a9.37,9.37,0,0,0,9.35-9.35V15.8a9.36,9.36,0,0,0-9.35-9.35Z"/></g></g></svg>