<svg xmlns="http://www.w3.org/2000/svg" viewBox="0 0 112.22 112.22"><defs><style>.cls-1{fill:#575756;}.cls-2{fill:#641411;}</style></defs><g id="Capa_2" data-name="Capa 2"><g id="Capa_1-2" data-name="Capa 1"><path class="cls-1" d="M95.33,36.44a4.85,4.85,0,0,0-2.71-4.6c-8.77-5-17.5-10-26.25-15.08l-7.86-4.5A4.13,4.13,0,0,0,54.16,12Q36.72,22,19.29,32a4.51,4.51,0,0,0-2.42,4.25c0,6.6,0,13.19,0,19.78s0,13.32,0,20a4.4,4.4,0,0,0,2.39,4.16Q36.39,90,53.49,100a4.74,4.74,0,0,0,5.15,0q17-9.85,34.06-19.67a4.75,4.75,0,0,0,2.64-4.52Q95.3,56.12,95.33,36.44ZM35.26,58.6h0v3.85c0,.41,0,.83,0,1.24a.35.35,0,0,1-.57.31l-2-1.13c-.52-.3-1-.6-1.57-.89a.84.84,0,0,1-.46-.79c0-1.41,0-2.82,0-4.22a.85.85,0,0,0-.48-.83l-1.38-.8a.81.81,0,0,0-.86,0l-1.5.88a.74.74,0,0,0-.38.7c0,1.43,0,2.87,0,4.3a.82.82,0,0,1-.45.77l-3.51,2c-.34.19-.61,0-.61-.35,0-1.15,0-2.3,0-3.44,0-2,0-3.9,0-5.84a.91.91,0,0,1,.51-.9l5.44-3.13.49-.28a.81.81,0,0,1,.92,0l5.93,3.41a.91.91,0,0,1,.51.86C35.26,55.75,35.26,57.18,35.26,58.6Zm18.55,2.85a.84.84,0,0,1-.47.81l-6.09,3.52a.85.85,0,0,1-.92,0l-6.12-3.53a.79.79,0,0,1-.43-.75c0-1.19,0-2.38,0-3.57s0-2.36,0-3.54a.8.8,0,0,1,.43-.76L46.45,50a.73.73,0,0,1,.78.05l1.4.8c1.57.9,3.13,1.81,4.7,2.7a.87.87,0,0,1,.48.82ZM72.15,44V61.25c0,.11,0,.22,0,.34a.64.64,0,0,1-.34.5l-1.6.94-4.41,2.54a1,1,0,0,1-.43.18.1.1,0,0,0-.08.07H65.2c-.07-.12-.2-.09-.3-.15-.42-.25-.85-.49-1.28-.73L58.88,62.2a.93.93,0,0,1-.53-.89c0-2.27,0-4.55,0-6.82a.88.88,0,0,1,.47-.83q3-1.69,5.92-3.41a.92.92,0,0,1,1,0c.42.26.85.5,1.28.74s.49.09.49-.29V41.48c0-.3.16-.46.42-.44a.56.56,0,0,1,.18.07l3.58,2a.79.79,0,0,1,.42.74ZM90.48,55.89a.81.81,0,0,1-.43.78c-.85.48-1.68,1-2.52,1.46l-1,.57-.15.09a.36.36,0,0,1-.51-.34q0-.83,0-1.65a.47.47,0,0,0-.25-.45l-1.85-1.06a.38.38,0,0,0-.43,0l-1.81,1a.47.47,0,0,0-.27.45q0,1,0,2.07a.47.47,0,0,0,.26.44l5.4,3.09c.23.13.46.26.68.4a.36.36,0,0,1,0,.67l-3.63,2a.74.74,0,0,1-.77,0l-3-1.69L77.16,62a.73.73,0,0,1-.41-.71V57.82c0-1.15,0-2.3,0-3.46a.81.81,0,0,1,.46-.77l5.5-3.18.45-.26a.82.82,0,0,1,.9,0L85.9,51.2,90,53.57a.87.87,0,0,1,.49.83C90.47,54.89,90.47,55.39,90.48,55.89ZM84.93,57.8v.61a.2.2,0,0,1-.12.21l-1.11.64a.19.19,0,0,1-.19,0l-1.11-.64a.2.2,0,0,1-.12-.2c0-.41,0-.82,0-1.24a.24.24,0,0,1,.14-.22l1-.62a.26.26,0,0,1,.28,0l1,.62a.22.22,0,0,1,.13.23Z"/><path class="cls-1" d="M49.11,59.09a.27.27,0,0,1-.16.26l-2,1.16a.29.29,0,0,1-.31,0l-2-1.16a.27.27,0,0,1-.14-.25V56.76a.27.27,0,0,1,.14-.25l2-1.18a.24.24,0,0,1,.26,0l.46.26L49,56.5a.29.29,0,0,1,.16.27C49.11,57.54,49.1,58.32,49.11,59.09Z"/><path class="cls-1" d="M67.53,59a.34.34,0,0,1-.18.32c-.66.37-1.31.75-2,1.13a.29.29,0,0,1-.31,0l-2-1.16a.29.29,0,0,1-.15-.26c0-.77,0-1.55,0-2.32a.28.28,0,0,1,.15-.24l2-1.17a.26.26,0,0,1,.28,0l2,1.16a.27.27,0,0,1,.14.26c0,.39,0,.77,0,1.16S67.52,58.67,67.53,59Z"/><path class="cls-2" d="M96.42,112.22H15.8A15.82,15.82,0,0,1,0,96.42V15.8A15.82,15.82,0,0,1,15.8,0H96.42a15.82,15.82,0,0,1,15.8,15.8V96.42A15.82,15.82,0,0,1,96.42,112.22ZM15.8,6.45A9.35,9.35,0,0,0,6.45,15.8V96.42a9.36,9.36,0,0,0,9.35,9.35H96.42a9.37,9.37,0,0,0,9.35-9.35V15.8a9.36,9.36,0,0,0-9.35-9.35Z"/></g></g></svg>