<svg xmlns="http://www.w3.org/2000/svg" viewBox="0 0 112.22 112.22"><defs><style>.cls-1{fill:#641411;}.cls-2{fill:#575756;}.cls-2,.cls-3{fill-rule:evenodd;}.cls-3{fill:#868686;}</style></defs><g id="Capa_2" data-name="Capa 2"><g id="Capa_1-2" data-name="Capa 1"><path class="cls-1" d="M96.42,112.22H15.8A15.82,15.82,0,0,1,0,96.42V15.8A15.82,15.82,0,0,1,15.8,0H96.42a15.82,15.82,0,0,1,15.8,15.8V96.42A15.82,15.82,0,0,1,96.42,112.22ZM15.8,6.45A9.35,9.35,0,0,0,6.45,15.8V96.42a9.35,9.35,0,0,0,9.35,9.35H96.42a9.35,9.35,0,0,0,9.35-9.35V15.8a9.35,9.35,0,0,0-9.35-9.35Z"/><path class="cls-2" d="M14.74,70.6h2.74V59.82l4.22,9.4a2.32,2.32,0,0,0,2.51,1.53,2.32,2.32,0,0,0,2.51-1.53l4.22-9.4V70.6h2.72V59.84A1.65,1.65,0,0,0,32.38,58c-2.07-.65-3.47-.09-4.09,1.31L24.15,68.6l-4-9.27c-.6-1.4-2-2-4.09-1.31a1.64,1.64,0,0,0-1.3,1.82V70.6Z"/><path class="cls-2" d="M35.94,61.82h2.72v5.94c0,.33.1,1.09,1.6,1.11.76,0,5.88,0,5.92,0V61.8h2.74s0,9.64,0,9.68c0,2.38-3,2.89-4.31,2.93H36V72.57s8.59,0,8.61,0c1.76-.17,1.55-1,1.55-1.34v-.71H40.37c-2.7,0-4.41-1.21-4.43-2.57,0-.13.06-6.07,0-6.13Z"/><path class="cls-2" d="M94.66,55a9.33,9.33,0,0,0-4.06.58c-.31.13-.79.13-.85.52a3,3,0,0,1,.33.67A5.25,5.25,0,0,0,91.19,58a15.9,15.9,0,0,0,1.32,1c.83.5,1.75.77,2.53,1.28.48.29.94.66,1.4,1,.21.17.37.42.65.52v0a6.9,6.9,0,0,1-.32-.67l-.63-.63A10.6,10.6,0,0,0,94,58.37c-.65-.46-2.11-1.1-2.38-1.86,0,0,0,0,0,0,.46-.06,1-.23,1.43-.33C93.66,56,94.3,56,95,55.8l1-.29v-.19A13.87,13.87,0,0,0,95,54.09a28.55,28.55,0,0,0-3.42-2.57,22.32,22.32,0,0,0-2.2-1.07c-.23-.1-.65-.17-.81-.38a9.14,9.14,0,0,1-.86-1.61C87.09,47.29,86.51,46,86,44.83a21.29,21.29,0,0,0-1-2.39,21.23,21.23,0,0,0-8.11-7.82,10.53,10.53,0,0,0-2.68-.85l-1.57-.11a9.44,9.44,0,0,1-1-.71c-1.19-.75-4.26-2.4-5.14-.23-.56,1.36.84,2.7,1.34,3.39a9.71,9.71,0,0,1,1,1.57c.17.35.19.71.34,1.08a29.63,29.63,0,0,0,1.08,2.83,11.34,11.34,0,0,0,.78,1.29c.17.23.48.34.52.71a6.26,6.26,0,0,0-.48,1.57,9.2,9.2,0,0,0,.63,7c.33.53,1.11,1.68,2.19,1.24s.73-1.57,1-2.64c.06-.23,0-.39.14-.56v0c.27.59.57,1.15.86,1.72a11.39,11.39,0,0,0,2.72,2.82c.48.37.87,1,1.52,1.23v0h-.06a3,3,0,0,0-.46-.42,12,12,0,0,1-1.11-1.25,32,32,0,0,1-2.34-3.81c-.33-.65-.63-1.36-.9-2-.1-.26-.1-.63-.33-.78a10,10,0,0,0-1,1.44,12.29,12.29,0,0,0-.56,3.14c-.08,0-.06,0-.1.06-.67-.16-.9-.85-1.15-1.44A9.12,9.12,0,0,1,72,45.35c.14-.44.79-1.82.52-2.24s-.52-.65-.75-1A7.28,7.28,0,0,1,71,40.83c-.5-1.17-.73-2.46-1.27-3.63a9.91,9.91,0,0,0-1.05-1.61A12.18,12.18,0,0,1,67.48,34c-.1-.23-.25-.61-.1-.86a.39.39,0,0,1,.29-.29c.27-.21,1,.08,1.34.18a13.23,13.23,0,0,1,2,1.07c.31.21.63.61,1,.71h.42c.67.15,1.42,0,2,.23a12.14,12.14,0,0,1,3,1.44,18.62,18.62,0,0,1,6.54,7.15c.25.48.36.92.57,1.42.44,1,1,2.07,1.44,3.06a13.9,13.9,0,0,0,1.46,2.82c.34.44,1.59.67,2.16.9a13.23,13.23,0,0,1,1.42.58c.73.42,1.42.94,2.11,1.42.33.23,1.38.76,1.42,1.2Z"/><path class="cls-2" d="M72.48,36.92s.35.09.77.75a2.78,2.78,0,0,1,.42,1.16,1.33,1.33,0,0,0,.13-1.49C73.43,36.75,72.6,36.9,72.48,36.92Z"/><path class="cls-3" d="M51,70.6h7.84a6.14,6.14,0,0,0,2.53-.52,2.49,2.49,0,0,0,1.76-2.24v-2c0-.78-.67-1.53-1.95-2a6.57,6.57,0,0,0-2.34-.4h-3.3c-1.11,0-1.63-.33-1.76-1.06a1.14,1.14,0,0,1,0-.26V60.88a.93.93,0,0,1,0-.23c.13-.56.42-.73,1.38-.81l.27,0h7.8V58H55.59a7.55,7.55,0,0,0-2.2.23c-1.63.52-2.34,1.31-2.34,2.71v1.59c0,1.24,1.4,2.28,3.72,2.53l.8,0h2.82a1.32,1.32,0,0,1,.29,0c.88.09,1.24.23,1.51.55a.74.74,0,0,1,.21.5v1.59a.91.91,0,0,1-.4.65,2,2,0,0,1-1.15.37l-.29,0H51V70.6Z"/><path class="cls-3" d="M80.17,67.42c0,1.89,1.38,2.93,4.2,3.14.26,0,.53,0,.78,0h7.11V68.78H85.11c-1.61,0-2.22-.39-2.22-1.36V58H80.17v9.42Z"/><path class="cls-3" d="M64.89,67.53V61.05c0-1.65,1.15-2.66,3.45-3a4.47,4.47,0,0,1,.73,0h5.19a4.84,4.84,0,0,1,.75,0c2.28.31,3.45,1.32,3.45,3v6.48A2.36,2.36,0,0,1,76.83,70l2.69,2.42H76.35l-2.18-1.94L72,70.64H69.07a5.68,5.68,0,0,1-1.61-.23C65.73,70,64.89,69,64.89,67.53Zm3-.17a1.35,1.35,0,0,0,0,.29c.17.76.88,1.18,1.94,1.18h2.49l-2.28-2h3.18l2,1.77a1.3,1.3,0,0,0,.69-.85,1.42,1.42,0,0,0,0-.28V61.2a.93.93,0,0,0,0-.23c-.17-.72-.88-1.11-1.93-1.11H69.82c-1.21,0-2,.52-2,1.34v6.16Z"/><path class="cls-3" d="M93.51,70.6h.4V69.1h.54v-.32H93v.32h.54v1.5Zm3,0h.36V68.78h-.55L95.89,70l-.48-1.26h-.56V70.6h.37V69.22h0l.53,1.38H96l.52-1.38h0V70.6Z"/></g></g></svg>