<svg xmlns="http://www.w3.org/2000/svg" viewBox="0 0 112.22 112.22"><defs><style>.cls-1{fill:#575756;}.cls-2{fill:#641411;}</style></defs><g id="Capa_2" data-name="Capa 2"><g id="Capa_1-2" data-name="Capa 1"><path class="cls-1" d="M84.71,20.39H27.51a7.12,7.12,0,0,0-7.12,7.12v57.2a7.12,7.12,0,0,0,7.12,7.12h57.2a7.12,7.12,0,0,0,7.12-7.12V27.51A7.12,7.12,0,0,0,84.71,20.39ZM61.87,59.61c0,.3,0,.39-.37.39-2.71,0-5.42,0-8.13,0-.38,0-.45.12-.45.47q0,6.15,0,12.32t0,12.39c0,.32-.09.4-.4.4q-3.18,0-6.36,0c-.3,0-.38-.07-.38-.38q0-12.37,0-24.75c0-.34-.06-.45-.43-.45-2.71,0-5.42,0-8.13,0-.34,0-.4-.1-.4-.41,0-1.66,0-3.32,0-5,0-.28.09-.34.35-.34q12.15,0,24.3,0c.29,0,.37.07.36.36C61.86,56.29,61.86,58,61.87,59.61ZM85,80.65A7,7,0,0,1,82,84a13.07,13.07,0,0,1-5,1.64,25,25,0,0,1-10-.6,12.62,12.62,0,0,1-2.15-.8.31.31,0,0,1-.22-.31v-6.5a14.09,14.09,0,0,0,3.15,1.86,12.75,12.75,0,0,0,7.54.86,5.1,5.1,0,0,0,1.86-.75,2.68,2.68,0,0,0,.73-3.78,6.82,6.82,0,0,0-2.57-2.1c-1.42-.77-3-1.3-4.4-2a18.55,18.55,0,0,1-3.27-2,8.25,8.25,0,0,1-3.22-7A8.14,8.14,0,0,1,67.7,56a11,11,0,0,1,5-2.11,24.24,24.24,0,0,1,10.88.45c1,.29,1,.3,1,1.38v5.13c0,.1,0,.25,0,.29s-.2-.06-.29-.12a13.08,13.08,0,0,0-5.1-1.79,11,11,0,0,0-4.5.14,4.32,4.32,0,0,0-2.11,1.16,2.43,2.43,0,0,0-.17,3.22A8.06,8.06,0,0,0,75.47,66c1.8.83,3.65,1.55,5.39,2.53A12.77,12.77,0,0,1,84,71a7.24,7.24,0,0,1,1.77,4A10.75,10.75,0,0,1,85,80.65Z"/><path class="cls-2" d="M96.42,112.22H15.8A15.82,15.82,0,0,1,0,96.42V15.8A15.82,15.82,0,0,1,15.8,0H96.42a15.82,15.82,0,0,1,15.8,15.8V96.42A15.82,15.82,0,0,1,96.42,112.22ZM15.8,6.45A9.35,9.35,0,0,0,6.45,15.8V96.42a9.36,9.36,0,0,0,9.35,9.35H96.42a9.36,9.36,0,0,0,9.35-9.35V15.8a9.35,9.35,0,0,0-9.35-9.35Z"/><path class="cls-1" d="M84.71,20.39H27.51a7.12,7.12,0,0,0-7.12,7.12v57.2a7.12,7.12,0,0,0,7.12,7.12h57.2a7.12,7.12,0,0,0,7.12-7.12V27.51A7.12,7.12,0,0,0,84.71,20.39ZM61.87,59.61c0,.3,0,.39-.37.39-2.71,0-5.42,0-8.13,0-.38,0-.45.12-.45.47q0,6.15,0,12.32t0,12.39c0,.32-.09.4-.4.4q-3.18,0-6.36,0c-.3,0-.38-.07-.38-.38q0-12.37,0-24.75c0-.34-.06-.45-.43-.45-2.71,0-5.42,0-8.13,0-.34,0-.4-.1-.4-.41,0-1.66,0-3.32,0-5,0-.28.09-.34.35-.34q12.15,0,24.3,0c.29,0,.37.07.36.36C61.86,56.29,61.86,58,61.87,59.61ZM85,80.65A7,7,0,0,1,82,84a13.07,13.07,0,0,1-5,1.64,25,25,0,0,1-10-.6,12.62,12.62,0,0,1-2.15-.8.31.31,0,0,1-.22-.31v-6.5a14.09,14.09,0,0,0,3.15,1.86,12.75,12.75,0,0,0,7.54.86,5.1,5.1,0,0,0,1.86-.75,2.68,2.68,0,0,0,.73-3.78,6.82,6.82,0,0,0-2.57-2.1c-1.42-.77-3-1.3-4.4-2a18.55,18.55,0,0,1-3.27-2,8.25,8.25,0,0,1-3.22-7A8.14,8.14,0,0,1,67.7,56a11,11,0,0,1,5-2.11,24.24,24.24,0,0,1,10.88.45c1,.29,1,.3,1,1.38v5.13c0,.1,0,.25,0,.29s-.2-.06-.29-.12a13.08,13.08,0,0,0-5.1-1.79,11,11,0,0,0-4.5.14,4.32,4.32,0,0,0-2.11,1.16,2.43,2.43,0,0,0-.17,3.22A8.06,8.06,0,0,0,75.47,66c1.8.83,3.65,1.55,5.39,2.53A12.77,12.77,0,0,1,84,71a7.24,7.24,0,0,1,1.77,4A10.75,10.75,0,0,1,85,80.65Z"/><path class="cls-2" d="M96.42,112.22H15.8A15.82,15.82,0,0,1,0,96.42V15.8A15.82,15.82,0,0,1,15.8,0H96.42a15.82,15.82,0,0,1,15.8,15.8V96.42A15.82,15.82,0,0,1,96.42,112.22ZM15.8,6.45A9.35,9.35,0,0,0,6.45,15.8V96.42a9.36,9.36,0,0,0,9.35,9.35H96.42a9.36,9.36,0,0,0,9.35-9.35V15.8a9.35,9.35,0,0,0-9.35-9.35Z"/></g></g></svg>