<svg xmlns="http://www.w3.org/2000/svg" viewBox="0 0 40.38 45.76"><defs><style>.cls-1{fill:#575756;}.cls-2{fill:#868686;}</style></defs><g id="Capa_2" data-name="Capa 2"><g id="Capa_1-2" data-name="Capa 1"><path class="cls-1" d="M0,0,3.5,41.13l16.84,4.63,16.44-4.43L40.38,0ZM9.13,26.29h5l.34,4.08,5.74,1.51h0l5.58-1.61.53-6.54-6.13,0-11.41,0-.43-5.12,11.86.05,6.49,0,.52-5.24H7.94L7.53,8.39l12.8,0,12.5,0L30.5,34.19l-10.26,3h0L9.66,34.27Z"/><polygon class="cls-2" points="26.41 23.74 25.88 30.28 20.3 31.89 20.26 31.88 20.28 23.77 26.41 23.74"/><polygon class="cls-2" points="27.31 13.51 26.79 18.75 20.3 18.73 20.32 13.51 27.31 13.51"/><polygon class="cls-2" points="36.66 3.5 33.5 38.65 20.23 42.51 20.24 37.2 30.5 34.19 32.83 8.47 20.33 8.43 20.35 3.44 36.66 3.5"/></g></g></svg>