<svg xmlns="http://www.w3.org/2000/svg" viewBox="0 0 39.99 45.31"><defs><style>.cls-1{fill:#868686;}.cls-2{fill:#b1b1b1;}</style></defs><g id="Capa_2" data-name="Capa 2"><g id="Capa_1-2" data-name="Capa 1"><path class="cls-1" d="M0,0,3.47,40.72l16.67,4.59,16.28-4.38L40,0ZM9,26h5l.34,4,5.68,1.5h0L25.62,30l.53-6.47-6.07,0-11.3,0L8.35,18.5l11.75,0,6.43,0,.51-5.2H7.87L7.45,8.31l12.68,0,12.38,0L30.2,33.85,20,36.83h0L9.56,33.93Z"/><polygon class="cls-2" points="26.15 23.51 25.63 29.98 20.1 31.58 20.06 31.57 20.09 23.53 26.15 23.51"/><polygon class="cls-2" points="27.04 13.37 26.53 18.57 20.1 18.54 20.12 13.37 27.04 13.37"/><polygon class="cls-2" points="36.3 3.47 33.17 38.27 20.03 42.09 20.05 36.83 30.2 33.85 32.51 8.39 20.13 8.35 20.15 3.41 36.3 3.47"/></g></g></svg>