<svg xmlns="http://www.w3.org/2000/svg" viewBox="0 0 40.38 45.76"><defs><style>.cls-1{fill:#575756;}.cls-2{fill:#868686;}</style></defs><g id="Capa_2" data-name="Capa 2"><g id="Capa_1-2" data-name="Capa 1"><path class="cls-1" d="M0,0,3.5,41.13l16.84,4.63,16.44-4.43L40.38,0ZM9.11,26.28h5.11l.34,4,5.68,1.59h0l5.58-1.5.52-6.63H8.82L7.51,8.47h25.3l-.41,5.08-12.09,0H13l.44,5.2H32L30.55,34.26,20.24,37.08h0L9.74,34.23Z"/><polygon class="cls-2" points="26.36 23.71 25.84 30.34 20.26 31.84 20.28 23.71 26.36 23.71"/><polygon class="cls-2" points="36.66 3.5 33.5 38.65 20.23 42.51 20.24 37.08 30.55 34.26 32 18.7 20.3 18.7 20.32 13.52 32.41 13.54 32.81 8.46 20.33 8.47 20.35 3.44 36.66 3.5"/></g></g></svg>