<svg xmlns="http://www.w3.org/2000/svg" viewBox="0 0 39.99 45.31"><defs><style>.cls-1{fill:#868686;}.cls-2{fill:#b1b1b1;}</style></defs><g id="Capa_2" data-name="Capa 2"><g id="Capa_1-2" data-name="Capa 1"><path class="cls-1" d="M0,0,3.47,40.72l16.67,4.59,16.28-4.38L40,0ZM9,26h5.06L14.42,30,20,31.53h0L25.58,30l.52-6.56H8.74L7.44,8.39H32.49l-.4,5-12,0H12.9l.42,5.14H31.69l-1.44,15.4L20,36.72h0L9.65,33.89Z"/><polygon class="cls-2" points="26.1 23.48 25.59 30.04 20.06 31.53 20.09 23.48 26.1 23.48"/><polygon class="cls-2" points="36.3 3.47 33.17 38.27 20.03 42.09 20.05 36.72 30.25 33.92 31.69 18.52 20.1 18.52 20.12 13.39 32.09 13.41 32.49 8.38 20.13 8.38 20.15 3.41 36.3 3.47"/></g></g></svg>