<svg xmlns="http://www.w3.org/2000/svg" viewBox="0 0 44.76 44.58"><defs><style>.cls-1{fill:#575756;}</style></defs><g id="Capa_2" data-name="Capa 2"><g id="Capa_1-2" data-name="Capa 1"><path class="cls-1" d="M41,0H3.73A3.73,3.73,0,0,0,0,3.73V40.86a3.73,3.73,0,0,0,3.73,3.72H41a3.73,3.73,0,0,0,3.73-3.72V3.73A3.73,3.73,0,0,0,41,0ZM24.38,28.17q0,3.33,0,6.66a8.89,8.89,0,0,1-.17,1.93,5.15,5.15,0,0,1-3.8,4.17,8.14,8.14,0,0,1-5-.13,6.35,6.35,0,0,1-3.57-3.3.12.12,0,0,1,.05-.16c1.08-.65,2.16-1.3,3.22-2,.12-.06.14,0,.18.07a10.38,10.38,0,0,0,.67,1,2.46,2.46,0,0,0,2.45,1,1.72,1.72,0,0,0,1.54-1.11,2.9,2.9,0,0,0,.19-.91c0-.34,0-.7,0-1V20.77c0-.17,0-.23.21-.22h3.79c.16,0,.21,0,.21.21C24.37,23.23,24.38,25.71,24.38,28.17ZM41,37.37a5.3,5.3,0,0,1-3.08,3.2,10.3,10.3,0,0,1-6.83.18,7.6,7.6,0,0,1-4.32-3.63.2.2,0,0,1,.08-.27l3.1-1.8a.17.17,0,0,1,.25.06,5.32,5.32,0,0,0,1.73,1.8,4.4,4.4,0,0,0,2.73.58,3.54,3.54,0,0,0,1.25-.31,1.91,1.91,0,0,0,.83-2.91,3.09,3.09,0,0,0-.94-.78,27.77,27.77,0,0,0-2.6-1.2,14,14,0,0,1-2.85-1.54A5.47,5.47,0,0,1,28,27a5.76,5.76,0,0,1,.76-4.13,5.52,5.52,0,0,1,3.5-2.37A7.52,7.52,0,0,1,34,20.31a7.31,7.31,0,0,1,3.36.69A6.31,6.31,0,0,1,40,23.59c.07.12,0,.14-.09.17L37.36,25.4c-.16.11-.32.2-.48.32s-.13,0-.18,0a3.56,3.56,0,0,0-.93-1.14,2.61,2.61,0,0,0-2.68-.35,1.85,1.85,0,0,0-.37,3.1,7.06,7.06,0,0,0,1.63.92c1.07.48,2.17.91,3.21,1.48a7.41,7.41,0,0,1,3,2.63,4.61,4.61,0,0,1,.62,1.78A6.63,6.63,0,0,1,41,37.37Z"/></g></g></svg>