<svg xmlns="http://www.w3.org/2000/svg" viewBox="0 0 44.32 44.14"><defs><style>.cls-1{fill:#868686;}</style></defs><g id="Capa_2" data-name="Capa 2"><g id="Capa_1-2" data-name="Capa 1"><path class="cls-1" d="M40.63,0H3.69A3.69,3.69,0,0,0,0,3.69V40.46a3.69,3.69,0,0,0,3.69,3.68H40.63a3.69,3.69,0,0,0,3.69-3.68V3.69A3.69,3.69,0,0,0,40.63,0ZM24.14,27.9v6.59A8.77,8.77,0,0,1,24,36.4a5.08,5.08,0,0,1-3.76,4.13,8.05,8.05,0,0,1-4.95-.13,6.23,6.23,0,0,1-3.53-3.27.12.12,0,0,1,0-.16L15,35c.11-.07.13,0,.17.06a12.22,12.22,0,0,0,.66,1,2.45,2.45,0,0,0,2.43,1A1.7,1.7,0,0,0,19.75,36a3.08,3.08,0,0,0,.19-.9c0-.34,0-.69,0-1q0-6.74,0-13.49c0-.17,0-.23.21-.22h3.75c.17,0,.21,0,.21.2ZM40.55,37a5.23,5.23,0,0,1-3,3.18,10.19,10.19,0,0,1-6.77.17,7.48,7.48,0,0,1-4.27-3.6.19.19,0,0,1,.08-.26c1-.59,2-1.18,3.06-1.79a.19.19,0,0,1,.26.07,5.36,5.36,0,0,0,1.7,1.78,4.41,4.41,0,0,0,2.71.57,3.52,3.52,0,0,0,1.24-.3,1.89,1.89,0,0,0,.82-2.88,3.17,3.17,0,0,0-.93-.78A27.09,27.09,0,0,0,32.84,32,14.31,14.31,0,0,1,30,30.45a5.41,5.41,0,0,1-2.29-3.7,5.66,5.66,0,0,1,.75-4.09,5.46,5.46,0,0,1,3.46-2.34,7.5,7.5,0,0,1,1.75-.21,7.36,7.36,0,0,1,3.33.68,6.31,6.31,0,0,1,2.6,2.57c.07.12,0,.13-.09.17L37,25.15l-.49.31c-.08.07-.12,0-.17,0a3.5,3.5,0,0,0-.92-1.13A2.58,2.58,0,0,0,32.77,24,1.82,1.82,0,0,0,32.4,27a6.74,6.74,0,0,0,1.61.91c1.07.48,2.16.9,3.18,1.47a7.26,7.26,0,0,1,3,2.6,4.73,4.73,0,0,1,.62,1.77A6.47,6.47,0,0,1,40.55,37Z"/></g></g></svg>