<svg xmlns="http://www.w3.org/2000/svg" viewBox="0 0 49.16 55.92"><defs><style>.cls-1{fill:#575756;}</style></defs><g id="Capa_2" data-name="Capa 2"><g id="Capa_1-2" data-name="Capa 1"><path class="cls-1" d="M49.16,15.64a3,3,0,0,0-1.7-2.88C42,9.63,36.49,6.46,31,3.31c-1.64-.94-3.28-1.87-4.92-2.82A2.57,2.57,0,0,0,23.36.32Q12.44,6.58,1.51,12.87A2.81,2.81,0,0,0,0,15.53c0,4.13,0,8.26,0,12.4s0,8.34,0,12.51a2.78,2.78,0,0,0,1.5,2.61q10.73,6.18,21.44,12.39a3,3,0,0,0,3.23,0q10.67-6.18,21.34-12.33a3,3,0,0,0,1.65-2.83Q49.13,28,49.16,15.64ZM11.52,29.52h0v2.41c0,.26,0,.52,0,.78s-.17.3-.36.2L9.91,32.2l-1-.56a.52.52,0,0,1-.29-.49V28.5A.55.55,0,0,0,8.35,28c-.3-.16-.58-.33-.87-.5a.5.5,0,0,0-.54,0L6,28a.46.46,0,0,0-.24.44v2.69a.5.5,0,0,1-.28.48L3.28,32.9c-.22.12-.38,0-.38-.22,0-.72,0-1.44,0-2.16,0-1.22,0-2.44,0-3.66a.58.58,0,0,1,.32-.56l3.41-2c.1-.06.2-.11.3-.18a.51.51,0,0,1,.58,0l3.72,2.13a.57.57,0,0,1,.31.54Zm11.62,1.79a.53.53,0,0,1-.29.51L19,34a.53.53,0,0,1-.58,0L14.62,31.8a.49.49,0,0,1-.27-.46V26.88a.52.52,0,0,1,.27-.48l3.91-2.24a.46.46,0,0,1,.49,0l.88.5,2.94,1.69a.54.54,0,0,1,.3.52ZM34.63,20.39v10.8a1.41,1.41,0,0,1,0,.2.41.41,0,0,1-.21.32l-1,.59-2.76,1.59a.64.64,0,0,1-.27.11.1.1,0,0,0-.05,0h0c0-.07-.13,0-.19-.09l-.8-.46-3-1.71a.58.58,0,0,1-.33-.56V27a.53.53,0,0,1,.3-.52L30,24.29a.57.57,0,0,1,.65,0c.26.16.53.31.8.46s.31.06.31-.18V18.8c0-.19.1-.29.26-.28l.12,0,2.24,1.26a.49.49,0,0,1,.26.46Zm11.49,7.43a.52.52,0,0,1-.27.49l-1.58.92-.62.36a.31.31,0,0,1-.1.05.22.22,0,0,1-.32-.21v-1a.28.28,0,0,0-.15-.28l-1.16-.66a.24.24,0,0,0-.27,0l-1.14.65a.31.31,0,0,0-.16.29v1.29a.28.28,0,0,0,.16.28l3.38,1.94.43.25a.23.23,0,0,1,0,.42L42,33.84a.46.46,0,0,1-.48,0L39.7,32.78l-1.93-1.1a.47.47,0,0,1-.26-.45c0-.73,0-1.46,0-2.2s0-1.44,0-2.16a.51.51,0,0,1,.29-.49l3.44-2,.29-.16a.5.5,0,0,1,.56,0c.38.23.77.45,1.16.67.85.5,1.7,1,2.56,1.49a.55.55,0,0,1,.31.52Q46.11,27.35,46.12,27.82ZM42.64,29v.39a.13.13,0,0,1-.08.13l-.69.39a.09.09,0,0,1-.12,0l-.7-.39a.14.14,0,0,1-.07-.13v-.78a.16.16,0,0,1,.08-.14l.66-.38a.15.15,0,0,1,.18,0l.66.38a.16.16,0,0,1,.08.15Z"/><path class="cls-1" d="M20.19,29.83a.16.16,0,0,1-.09.16l-1.26.73a.17.17,0,0,1-.19,0L17.39,30a.16.16,0,0,1-.09-.15V28.37a.18.18,0,0,1,.09-.16l1.29-.73c.05,0,.1,0,.16,0l.29.16,1,.56a.18.18,0,0,1,.1.17Z"/><path class="cls-1" d="M31.74,29.8a.22.22,0,0,1-.12.2l-1.23.71a.18.18,0,0,1-.19,0L28.94,30a.18.18,0,0,1-.09-.16V28.36a.16.16,0,0,1,.09-.15l1.28-.73a.15.15,0,0,1,.17,0l1.26.73a.15.15,0,0,1,.08.16v.73C31.73,29.33,31.73,29.57,31.74,29.8Z"/></g></g></svg>