<svg xmlns="http://www.w3.org/2000/svg" viewBox="0 0 56.72 50.61"><defs><style>.cls-1{fill:#575756;}</style></defs><g id="Capa_2" data-name="Capa 2"><g id="Capa_1-2" data-name="Capa 1"><path class="cls-1" d="M48,16.18c-.88-.34-1.8-.65-2.77-.94q.33-1.38.54-2.7c.92-5.94-.15-10.13-3-11.79S35.73.26,31.05,4c-.86.69-1.72,1.45-2.57,2.28-.86-.83-1.72-1.6-2.58-2.3C21.21.24,17.05-.92,14.18.74s-3.94,5.84-3,11.79c.13.86.31,1.74.52,2.65-1,.3-2,.63-3,1C3.09,18.33,0,21.33,0,24.63s3.09,6.29,8.71,8.45q1.65.63,3.51,1.14a37.79,37.79,0,0,0-.83,3.86c-.93,6,.14,10.13,3,11.79a5.65,5.65,0,0,0,2.87.74c2.51,0,5.55-1.37,8.84-4,.79-.64,1.58-1.33,2.36-2.09q1.17,1.13,2.34,2.07c3.3,2.65,6.33,4,8.84,4a5.59,5.59,0,0,0,2.88-.74c2.87-1.65,3.94-5.84,3-11.79-.2-1.25-.48-2.56-.83-3.9,1.15-.33,2.25-.69,3.29-1.08,5.61-2.16,8.71-5.16,8.71-8.45S53.62,18.33,48,16.18ZM32.49,5.83c2.86-2.3,5.43-3.52,7.37-3.52a3.54,3.54,0,0,1,1.75.43c2,1.14,2.66,4.58,1.89,9.45q-.18,1.2-.48,2.46a58.76,58.76,0,0,0-8.56-1.35A57.1,57.1,0,0,0,30.09,8C30.89,7.19,31.69,6.48,32.49,5.83Zm-4,35.41a53.46,53.46,0,0,1-4.25-5.15c1.35.08,2.73.12,4.13.12s2.94-.05,4.38-.14A54.1,54.1,0,0,1,28.48,41.24Zm-.12-7.33c-2,0-3.93-.08-5.82-.24-.79-1.19-1.55-2.42-2.29-3.7Q19,27.77,17.9,25.54c.77-1.63,1.64-3.27,2.58-4.91,1-1.8,2.14-3.52,3.28-5.14,1.5-.1,3-.15,4.6-.15s3.27.06,4.85.17c1.13,1.61,2.22,3.32,3.25,5.11.95,1.63,1.82,3.28,2.59,4.92-.72,1.48-1.5,3-2.36,4.45-.73,1.26-1.48,2.48-2.26,3.65C32.46,33.82,30.43,33.91,28.36,33.91ZM16.69,28.26c.5.95,1,1.91,1.57,2.86.44.76.88,1.5,1.34,2.23-1.56-.21-3.07-.47-4.51-.79C15.55,31.16,16.08,29.72,16.69,28.26Zm0-5.42a54.53,54.53,0,0,1-2.18-6,53.35,53.35,0,0,1,6.3-1.06q-1.18,1.8-2.3,3.72C17.84,20.6,17.24,21.72,16.67,22.84Zm22,8.3c.56-1,1.08-1.92,1.58-2.88.6,1.44,1.13,2.87,1.58,4.26-1.42.32-2.92.58-4.46.8C37.82,32.61,38.26,31.88,38.68,31.14Zm1.6-8.31c-.57-1.12-1.18-2.25-1.82-3.36q-1.11-1.91-2.28-3.69a56.51,56.51,0,0,1,6.26,1.09q-.55,1.9-1.32,3.9C40.86,21.45,40.58,22.14,40.28,22.83Zm-8.84-9.72c-1,0-2.05-.07-3.08-.07s-1.9,0-2.84.06q1.45-1.87,3-3.49Q30,11.23,31.44,13.11ZM15.33,2.73a3.44,3.44,0,0,1,1.75-.43c1.94,0,4.51,1.21,7.37,3.51A31.58,31.58,0,0,1,26.87,8a58.33,58.33,0,0,0-4.36,5.31,58.28,58.28,0,0,0-8.6,1.32c-.19-.83-.35-1.64-.47-2.43C12.68,7.3,13.37,3.86,15.33,2.73ZM12.86,32a34.25,34.25,0,0,1-3.33-1.08c-4.6-1.76-7.23-4.06-7.23-6.3s2.63-4.55,7.23-6.31c.87-.33,1.78-.64,2.74-.92a57.74,57.74,0,0,0,3.09,8.15A56.22,56.22,0,0,0,12.86,32ZM24.68,44.8c-2.86,2.3-5.43,3.51-7.37,3.51a3.41,3.41,0,0,1-1.75-.43c-2-1.13-2.66-4.57-1.89-9.44a34.06,34.06,0,0,1,.78-3.67,57.05,57.05,0,0,0,6.79,1.08,58.73,58.73,0,0,0,5.62,7C26.13,43.57,25.41,44.21,24.68,44.8Zm16.71,3.06c-2,1.14-5.29,0-9.13-3.08-.72-.58-1.44-1.22-2.16-1.91C31,42,31.82,41,32.66,39.94c1.05-1.29,2.08-2.66,3.07-4.11a58.54,58.54,0,0,0,6.76-1.1,36.54,36.54,0,0,1,.79,3.69C44,43.29,43.35,46.73,41.39,47.86Zm5.8-16.93c-1,.37-2,.72-3.12,1-.3-.94-.64-1.9-1-2.87-.44-1.17-.93-2.35-1.47-3.53a58,58,0,0,0,3.07-8.08c.88.26,1.73.54,2.53.85,4.59,1.76,7.23,4.06,7.23,6.31S51.78,29.17,47.19,30.93Z"/><circle class="cls-1" cx="28.36" cy="25.29" r="6.19"/></g></g></svg>