<svg xmlns="http://www.w3.org/2000/svg" viewBox="0 0 56.16 50.11"><defs><style>.cls-1{fill:#868686;}</style></defs><g id="Capa_2" data-name="Capa 2"><g id="Capa_1-2" data-name="Capa 1"><path class="cls-1" d="M47.54,16c-.87-.33-1.78-.64-2.74-.93.22-.91.39-1.8.53-2.67.92-5.89-.14-10-3-11.67S35.38.26,30.74,4c-.84.68-1.69,1.44-2.54,2.26-.85-.83-1.71-1.59-2.56-2.28C21,.24,16.88-.91,14,.73s-3.9,5.79-3,11.67c.13.86.3,1.73.51,2.63-1,.3-2,.63-3,1C3.06,18.15,0,21.12,0,24.38s3.06,6.24,8.62,8.37a34.64,34.64,0,0,0,3.48,1.13,37.17,37.17,0,0,0-.82,3.83c-.92,5.89.14,10,3,11.67a5.6,5.6,0,0,0,2.85.73c2.49,0,5.49-1.35,8.76-4,.77-.63,1.55-1.32,2.33-2.06.77.74,1.55,1.42,2.32,2,3.26,2.63,6.27,4,8.75,4a5.67,5.67,0,0,0,2.85-.72c2.84-1.65,3.9-5.79,3-11.68a37.67,37.67,0,0,0-.82-3.86c1.14-.33,2.23-.68,3.26-1.08,5.56-2.13,8.62-5.1,8.62-8.37S53.1,18.15,47.54,16ZM32.17,5.77c2.83-2.28,5.38-3.48,7.3-3.48a3.4,3.4,0,0,1,1.74.43c1.94,1.12,2.62,4.53,1.87,9.35-.13.79-.28,1.6-.48,2.44a57.66,57.66,0,0,0-8.48-1.34,56,56,0,0,0-4.33-5.28C30.59,7.12,31.38,6.41,32.17,5.77Zm-4,35.07A55.22,55.22,0,0,1,24,35.74c1.34.07,2.71.11,4.09.11s2.92,0,4.34-.13A54.31,54.31,0,0,1,28.2,40.84Zm-.12-7.26c-2,0-3.89-.08-5.76-.24-.78-1.18-1.54-2.4-2.27-3.66-.84-1.46-1.62-2.93-2.32-4.39.76-1.62,1.62-3.24,2.55-4.86,1-1.78,2.12-3.49,3.24-5.09,1.49-.1,3-.15,4.56-.15s3.24.06,4.81.17c1.12,1.59,2.2,3.28,3.22,5.05s1.79,3.26,2.56,4.88q-1.06,2.21-2.34,4.41c-.72,1.25-1.47,2.45-2.24,3.62C32.14,33.49,30.13,33.58,28.08,33.58ZM16.53,28c.49.95,1,1.9,1.55,2.84.43.75.88,1.48,1.33,2.2-1.55-.2-3-.46-4.46-.77C15.39,30.85,15.92,29.42,16.53,28Zm0-5.37a50.75,50.75,0,0,1-2.16-5.95,54,54,0,0,1,6.24-1.06q-1.18,1.78-2.28,3.69C17.67,20.4,17.07,21.5,16.51,22.61ZM38.3,30.84c.55-.95,1.07-1.91,1.57-2.86.59,1.43,1.12,2.84,1.56,4.22-1.41.32-2.89.58-4.42.79C37.45,32.29,37.88,31.57,38.3,30.84Zm1.59-8.23c-.57-1.11-1.17-2.23-1.81-3.34s-1.48-2.47-2.25-3.64A52.69,52.69,0,0,1,42,16.71c-.36,1.25-.8,2.54-1.3,3.85C40.46,21.24,40.18,21.92,39.89,22.61ZM31.13,13c-1,0-2-.07-3.05-.07s-1.88,0-2.81.06c1-1.23,1.94-2.39,2.93-3.45Q29.69,11.13,31.13,13ZM15.18,2.7a3.38,3.38,0,0,1,1.74-.43c1.91,0,4.46,1.2,7.29,3.49q1.2,1,2.4,2.13a57.24,57.24,0,0,0-4.32,5.26,58.39,58.39,0,0,0-8.51,1.31c-.19-.82-.35-1.63-.47-2.41C12.55,7.23,13.24,3.82,15.18,2.7Zm-2.45,29c-1.16-.32-2.26-.68-3.29-1.07-4.55-1.75-7.16-4-7.16-6.25s2.61-4.49,7.16-6.24c.85-.33,1.76-.63,2.71-.91a56.16,56.16,0,0,0,3.06,8.07A57.09,57.09,0,0,0,12.73,31.7ZM24.44,44.36c-2.83,2.28-5.38,3.48-7.3,3.48a3.4,3.4,0,0,1-1.74-.43c-1.94-1.12-2.62-4.53-1.87-9.35a35.85,35.85,0,0,1,.77-3.63A56.55,56.55,0,0,0,21,35.5a58.34,58.34,0,0,0,5.56,7C25.88,43.14,25.16,43.78,24.44,44.36Zm16.54,3c-1.94,1.13-5.23,0-9-3-.72-.58-1.43-1.21-2.14-1.89.85-.91,1.7-1.88,2.53-2.9,1-1.28,2.06-2.64,3-4.07a59.53,59.53,0,0,0,6.69-1.09A33.74,33.74,0,0,1,42.85,38C43.61,42.86,42.93,46.27,41,47.39Zm5.74-16.76c-1,.37-2,.71-3.08,1-.3-.94-.63-1.89-1-2.85-.44-1.15-.92-2.32-1.46-3.49a56.91,56.91,0,0,0,3-8c.88.26,1.71.54,2.5.84,4.55,1.75,7.16,4,7.16,6.24S51.27,28.88,46.72,30.63Z"/><circle class="cls-1" cx="28.08" cy="25.05" r="6.13"/></g></g></svg>