<svg xmlns="http://www.w3.org/2000/svg" viewBox="0 0 547.04 388.56"><defs><style>.cls-1{fill:#41181f;}.cls-2{fill:#651411;}.cls-3{fill:#c61a27;}.cls-4,.cls-5{fill:#9096ad;}.cls-5{opacity:0.8;}.cls-6{fill:#283043;}</style></defs><g id="Capa_2" data-name="Capa 2"><g id="Capa_1-2" data-name="Capa 1"><rect class="cls-1" x="108.29" y="88.74" width="337.54" height="227.36" rx="9.84"/><path class="cls-2" d="M118.13,88.74H436a9.84,9.84,0,0,1,9.84,9.84V288.12a0,0,0,0,1,0,0H108.29a0,0,0,0,1,0,0V98.58a9.84,9.84,0,0,1,9.84-9.84Z"/><rect class="cls-3" x="121.41" y="102.39" width="313.05" height="169.99"/><rect class="cls-1" x="242.96" y="316.1" width="70.17" height="33.89"/><path class="cls-2" d="M217.38,350H338.06a4.59,4.59,0,0,1,4.59,4.59v3.94a0,0,0,0,1,0,0H212.79a0,0,0,0,1,0,0v-3.94A4.59,4.59,0,0,1,217.38,350Z"/><circle class="cls-2" cx="279.19" cy="304.84" r="6.67"/><rect class="cls-2" x="148.74" y="128.41" width="258.62" height="28.16" rx="6.48"/><rect class="cls-2" x="186.36" y="183.66" width="44.42" height="5.3" rx="1.45"/><rect class="cls-2" x="236.01" y="183.66" width="100.51" height="5.3" rx="1.45"/><rect class="cls-2" x="148.74" y="199.86" width="17.42" height="5.3" rx="1.45"/><rect class="cls-2" x="148.74" y="232.26" width="153.3" height="5.3" rx="1.45"/><rect class="cls-2" x="248.9" y="216.06" width="19.51" height="5.3" rx="1.45"/><rect class="cls-2" x="274.16" y="216.06" width="62.36" height="5.3" rx="1.45"/><rect class="cls-4" x="148.74" y="183.66" width="31.01" height="5.3" rx="1.45"/><rect class="cls-4" x="148.74" y="216.06" width="94.07" height="5.3" rx="1.45"/><rect class="cls-4" x="316.23" y="232.26" width="19.6" height="5.3" rx="1.45"/><rect class="cls-4" x="172.25" y="199.86" width="150.16" height="5.3" rx="1.45"/><rect class="cls-5" x="67.69" y="261.7" width="81.21" height="126.86" rx="9.36"/><rect class="cls-5" x="421.69" y="146.53" width="113.86" height="117.26" rx="9.36"/><rect class="cls-5" x="332.61" y="307.56" width="214.43" height="31.84" rx="8.74"/><path class="cls-6" d="M108.25,311.51a15.78,15.78,0,0,0-15.37,19.18v0l0,.11a21.44,21.44,0,0,0,2.51,5.39l.4.69a22.52,22.52,0,0,1,3.51,10.87,3.8,3.8,0,0,0,3.89,3.48h10a3.84,3.84,0,0,0,3.89-3.48,22.63,22.63,0,0,1,3.51-10.87l.4-.69a21,21,0,0,0,2.51-5.38l0-.11v-.05a15.74,15.74,0,0,0-15.37-19.18Zm13.57,18.82,0,.1v0a20.59,20.59,0,0,1-2.3,4.84l-.41.69a24.28,24.28,0,0,0-3.75,11.7,2,2,0,0,1-2.06,1.73h-10a2,2,0,0,1-2.06-1.73A24.18,24.18,0,0,0,97.42,336l-.4-.69a19.82,19.82,0,0,1-2.3-4.84v0l0-.1a14.39,14.39,0,0,1-.34-3.08,13.91,13.91,0,0,1,27.82,0A13.76,13.76,0,0,1,121.82,330.33Z"/><path class="cls-6" d="M115.1,352.48H101.4a1.15,1.15,0,0,0,0,2.3h13.7a1.15,1.15,0,1,0,0-2.3Z"/><path class="cls-6" d="M112.87,355.76h-9.24a1.15,1.15,0,1,0,0,2.29h9.24a1.15,1.15,0,1,0,0-2.29Z"/><path class="cls-6" d="M112,359.52h-7.52a1.15,1.15,0,1,0,0,2.29H112a1.15,1.15,0,1,0,0-2.29Z"/><path class="cls-6" d="M115,319.3a11.35,11.35,0,0,0-3.56-1.86,1.14,1.14,0,0,0-.59,2.21,9.18,9.18,0,0,1,6.25,7.53,1.16,1.16,0,0,0,1.14,1l.17,0a1.13,1.13,0,0,0,1-1.3A11.48,11.48,0,0,0,115,319.3Z"/><path class="cls-6" d="M108.29,307.45a1.15,1.15,0,0,0,1.14-1.15V296.23a1.15,1.15,0,1,0-2.29,0V306.3A1.15,1.15,0,0,0,108.29,307.45Z"/><path class="cls-6" d="M123.52,302.82a1.15,1.15,0,0,0-1.5.62L119.3,310a1.15,1.15,0,0,0,.62,1.5,1.11,1.11,0,0,0,.44.08,1.15,1.15,0,0,0,1.06-.7l2.72-6.55A1.16,1.16,0,0,0,123.52,302.82Z"/><path class="cls-6" d="M137.18,311.79a1.14,1.14,0,0,0-1.59-.31l-8.37,5.61a1.15,1.15,0,0,0-.31,1.59,1.15,1.15,0,0,0,1.59.32l8.36-5.62A1.14,1.14,0,0,0,137.18,311.79Z"/><path class="cls-6" d="M96.22,311.57a1.11,1.11,0,0,0,.44-.08,1.14,1.14,0,0,0,.62-1.5l-2.72-6.55a1.14,1.14,0,1,0-2.11.88l2.72,6.55A1.14,1.14,0,0,0,96.22,311.57Z"/><path class="cls-6" d="M81,311.48a1.15,1.15,0,1,0-1.28,1.9L88.08,319a1.16,1.16,0,0,0,.64.19,1.15,1.15,0,0,0,.64-2.1Z"/><path class="cls-6" d="M79.83,278.56l3-2.84,2.84,3a.82.82,0,0,0,1.2-1.13l-2.84-3,3-2.83a.82.82,0,1,0-1.13-1.2l-3,2.84-2.83-3a.83.83,0,0,0-1.2,1.14l2.84,3-3,2.84a.82.82,0,0,0,.57,1.42A.89.89,0,0,0,79.83,278.56Z"/><rect class="cls-5" x="298.82" width="100.56" height="101.31" rx="9.36"/><rect class="cls-5" y="39.32" width="141.93" height="104.85" rx="9.36"/><path class="cls-6" d="M353.78,317.12a.82.82,0,0,0-1.16,0l-3.49,3.3-3.3-3.48a.82.82,0,0,0-1.16,0,.83.83,0,0,0,0,1.17l3.31,3.48-3.49,3.3a.83.83,0,0,0,.57,1.43.85.85,0,0,0,.57-.23l3.48-3.3,3.3,3.48a.83.83,0,0,0,.6.26.82.82,0,0,0,.6-1.39l-3.3-3.48,3.48-3.3A.82.82,0,0,0,353.78,317.12Z"/><path class="cls-6" d="M528.63,317.79h-157a5.23,5.23,0,0,0-5.22,5.23V324a5.22,5.22,0,0,0,5.22,5.22h157a5.23,5.23,0,0,0,5.23-5.22V323A5.24,5.24,0,0,0,528.63,317.79Zm3.58,6.16a3.59,3.59,0,0,1-3.58,3.58H505.27a4.39,4.39,0,0,0,1.85-3.58V323a4.39,4.39,0,0,0-1.85-3.58h23.36a3.59,3.59,0,0,1,3.58,3.58Z"/><path class="cls-6" d="M495.21,215.23a2.76,2.76,0,0,1-3.16,1.52c-1.57-.21-3.15-.31-4.73-.42a.7.7,0,0,0-.59.23c-.8,1.61-1.55,3.23-2.36,4.94,1.07,1.27,2.24,2.65,3.4,4a2.43,2.43,0,0,1-.36,3.88l-5.85,4.91a2.45,2.45,0,0,1-3.85-.33q-1.66-2-3.34-3.95s-.06,0,0,0c-1.86.56-3.63,1.09-5.38,1.65a.68.68,0,0,0-.36.5c-.16,1.57-.34,3.14-.41,4.72a2.54,2.54,0,0,1-3,2.53c-2.59-.31-5.19-.48-7.79-.71a2.35,2.35,0,0,1-2.35-2.76c.12-1.59.26-3.19.42-4.78a.66.66,0,0,0-.46-.78c-1.46-.72-2.91-1.49-4.34-2.28a.59.59,0,0,0-.8.07c-1.21,1-2.44,2.07-3.67,3.09a2.43,2.43,0,0,1-3.72-.34q-2.55-3-5.07-6a2.38,2.38,0,0,1,.34-3.7l4-3.35c-.51-1.86-1-3.63-1.52-5.39a.72.72,0,0,0-.52-.33c-1.64-.17-3.27-.35-4.91-.43a2.51,2.51,0,0,1-2.45-2.94c.31-2.62.48-5.27.71-7.91a2.33,2.33,0,0,1,2.65-2.27c1.74.13,3.48.28,5.21.46a.74.74,0,0,0,.87-.52c.72-1.49,1.51-2.94,2.32-4.51L440.75,190c-1.32-1.57-1.21-2.77.37-4.1q2.86-2.38,5.71-4.79a2.48,2.48,0,0,1,3.94.37l3.63,4.33,5.26-1.62c.16-1.77.37-3.61.46-5.45a2.78,2.78,0,0,1,2.05-2.85l9.58.84a2.76,2.76,0,0,1,1.51,3.16c-.22,1.69-.33,3.4-.45,5.09a.75.75,0,0,0,.22.61c1.5.77,3,1.5,4.62,2.28l4.59-3.85a2.38,2.38,0,0,1,3.5.28q2.65,3.12,5.27,6.27a2.36,2.36,0,0,1-.34,3.54q-2.09,1.77-4.19,3.52l-.32.29,1.73,5.28c1.75.16,3.53.37,5.31.45a2.77,2.77,0,0,1,2.85,2Zm-20.4,12.22c1.51,1.8,3,3.53,4.43,5.29.34.42.61.43,1,.09,2-1.67,3.92-3.32,5.9-5,.44-.36.46-.64.09-1.06-1.4-1.64-2.77-3.31-4.17-4.95a.55.55,0,0,1,0-.83,21.56,21.56,0,0,0,3.21-6.39c.12-.42.32-.51.74-.47,2.19.21,4.38.38,6.56.59.53,0,.75-.11.79-.64q.32-3.84.67-7.67c.06-.57-.13-.77-.69-.81-2.25-.17-4.5-.39-6.75-.57-.37,0-.52-.15-.58-.54a22.2,22.2,0,0,0-2.22-6.73c-.06-.13-.1-.26-.2-.51a4.21,4.21,0,0,0,.57-.36l5.1-4.26c.37-.3.49-.56.14-1-1.7-2-3.38-4-5.06-6-.32-.38-.58-.35-.93,0-1.12,1-2.26,1.91-3.39,2.86l-2.37,2a23,23,0,0,0-7-3.66c.22-2.53.43-5,.66-7.44.06-.57-.13-.77-.68-.81q-3.81-.31-7.61-.67c-.6-.06-.79.15-.84.73-.16,2.25-.39,4.5-.56,6.75,0,.48-.2.66-.67.73a20.53,20.53,0,0,0-6.49,2,.59.59,0,0,1-.87-.19c-1.43-1.74-2.9-3.45-4.34-5.2-.37-.46-.65-.49-1.1-.1-1.85,1.59-3.74,3.15-5.61,4.72-.81.68-.81.68-.14,1.47l4.46,5.31a23.13,23.13,0,0,0-3.88,7.15c-2.4-.21-4.73-.4-7.06-.63-.57-.05-.77.13-.81.69-.21,2.53-.43,5.07-.67,7.6-.06.6.14.79.73.84,2.07.15,4.13.35,6.2.53l.64.06a.79.79,0,0,1,.07.23,22.61,22.61,0,0,0,2.21,7.37c.19.36,0,.51-.22.71-1.64,1.36-3.27,2.74-4.91,4.11-.33.27-.44.5-.14.87q2.58,3.06,5.15,6.13c.27.33.52.32.83.05s.91-.76,1.37-1.15l3.92-3.29a23.23,23.23,0,0,0,7.47,3.91c-.19,2.25-.39,4.46-.58,6.66-.07.76,0,.81.72.88l7.49.66c.79.07.82,0,.9-.77.18-2.05.35-4.09.55-6.14,0-.2.21-.54.36-.56A23.37,23.37,0,0,0,474.81,227.45Z"/><path class="cls-6" d="M478.62,209a14.47,14.47,0,1,1-13.11-15.68A14.48,14.48,0,0,1,478.62,209Zm-15.5,11.13a12.45,12.45,0,1,0-11.32-13.52A12.44,12.44,0,0,0,463.12,220.1Z"/><path class="cls-6" d="M522.22,223.5c-1.06.27-2.15.47-3.21.69l-2-2.8a2.21,2.21,0,0,1,.13-.23c.62-.95,1.24-1.89,1.85-2.84a1.46,1.46,0,0,0-.44-2.15c-1.41-.92-2.82-1.85-4.24-2.75a1.46,1.46,0,0,0-2.12.46l-2,3.1c-1.08-.17-2.11-.33-3.14-.52-.09,0-.21-.19-.24-.31-.23-1-.47-2.05-.65-3.09a1.71,1.71,0,0,0-1.46-1.6l-5.8,1.23a1.7,1.7,0,0,0-.7,2.05c.27,1.1.48,2.23.71,3.31l-2.82,1.89-2.92-1.9a1.53,1.53,0,0,0-2.39.49l-2.52,3.86a1.54,1.54,0,0,0,.52,2.49l2.77,1.79c-.2,1.07-.4,2.07-.56,3.08-.05.28-.13.41-.42.46-1.06.21-2.11.43-3.16.67a1.43,1.43,0,0,0-1.16,1.82c.34,1.6.72,3.19,1,4.8a1.54,1.54,0,0,0,2,1.29c1-.25,2-.43,3-.63a.44.44,0,0,1,.37.11c.62.94,1.22,1.9,1.87,2.9l-1.76,2.7a1.46,1.46,0,0,0,.46,2.25q2,1.33,4.08,2.65a1.5,1.5,0,0,0,2.26-.46c.54-.83,1.08-1.66,1.61-2.49a.36.36,0,0,1,.46-.18c1,.21,2,.4,3,.56.25,0,.36.12.41.38.19,1,.39,1.94.61,2.9a1.45,1.45,0,0,0,1.88,1.21c1.58-.33,3.15-.71,4.73-1a1.56,1.56,0,0,0,1.31-2c-.24-.94-.42-1.91-.61-2.86a.45.45,0,0,1,.13-.37c.93-.64,1.87-1.26,2.87-1.93l2.66,1.73a1.53,1.53,0,0,0,2.34-.5l2.57-4a1.51,1.51,0,0,0-.49-2.36l-2.73-1.77c.17-1.15.32-2.25.5-3.34,0-.1.19-.22.31-.25,1-.21,1.91-.44,2.87-.6A1.69,1.69,0,0,0,525.5,230l-1.22-5.8A1.72,1.72,0,0,0,522.22,223.5Zm-23.91,9.2a7.69,7.69,0,1,1,9.12,6A7.68,7.68,0,0,1,498.31,232.7Z"/><path class="cls-6" d="M436.87,158.43l2.73-2.58a.82.82,0,0,0,0-1.16.83.83,0,0,0-1.17,0l-2.72,2.58-2.58-2.73a.83.83,0,1,0-1.2,1.14l2.58,2.72L431.82,161a.83.83,0,0,0,0,1.17.83.83,0,0,0,1.16,0l2.73-2.58,2.58,2.72a.82.82,0,0,0,1.2-1.13Z"/><path class="cls-6" d="M322.42,19.79l-3.65-3.85,3.85-3.65a.82.82,0,0,0-1.13-1.2l-3.86,3.65L314,10.89a.82.82,0,0,0-1.16,0,.83.83,0,0,0,0,1.17l3.65,3.85-3.86,3.65a.83.83,0,0,0,0,1.16.82.82,0,0,0,1.17,0l3.85-3.65,3.65,3.85a.79.79,0,0,0,.6.26.81.81,0,0,0,.56-.22A.83.83,0,0,0,322.42,19.79Z"/><path class="cls-6" d="M349.1,28.5a26.6,26.6,0,1,0,26.6,26.59A26.62,26.62,0,0,0,349.1,28.5Zm0,49.89a23.3,23.3,0,1,1,23.3-23.3A23.32,23.32,0,0,1,349.1,78.39Z"/><path class="cls-6" d="M357.78,48.63l-7.44,4.9V40.38a1.24,1.24,0,1,0-2.47,0V55.46a1.41,1.41,0,0,0,.75,1.26,1.52,1.52,0,0,0,.68.17,1.41,1.41,0,0,0,.79-.24l9.05-6a1.23,1.23,0,1,0-1.36-2.06Z"/><path class="cls-6" d="M24.64,50.86a.82.82,0,0,0-1.16,0l-4,3.8-3.8-4a.82.82,0,1,0-1.19,1.13l3.79,4-4,3.79a.83.83,0,0,0,0,1.17.82.82,0,0,0,.6.25.83.83,0,0,0,.57-.22l4-3.8,3.8,4a.83.83,0,0,0,.6.26.85.85,0,0,0,.57-.23.82.82,0,0,0,0-1.16l-3.8-4,4-3.8A.82.82,0,0,0,24.64,50.86Z"/><path class="cls-6" d="M47,78.75a.83.83,0,0,0,.12,1.16.84.84,0,0,0,.52.18.79.79,0,0,0,.64-.31A12,12,0,0,1,65.06,78a.82.82,0,0,0,1-1.28A13.6,13.6,0,0,0,47,78.75Z"/><path class="cls-6" d="M103.59,117.88,77,96.36a21.39,21.39,0,1,0-6.44,8l26.64,21.52a3.44,3.44,0,0,0,4.83-.52l2.13-2.63A3.45,3.45,0,0,0,103.59,117.88ZM46.17,101.39a18.13,18.13,0,1,1,26.59-4.23l-2.35,2.92A18.15,18.15,0,0,1,46.17,101.39Zm53.25,21.88a.13.13,0,0,1-.2,0L73,102.11l.1-.12c.38-.4.77-.8,1.13-1.24s.74-1,1.08-1.48l26.21,21.17a.14.14,0,0,1,0,.2Z"/></g></g></svg>