<svg xmlns="http://www.w3.org/2000/svg" viewBox="0 0 550.99 391.37"><defs><style>.cls-1{fill:#651411;}.cls-2{fill:#c86767;}.cls-3{fill:#d29c95;}.cls-4{fill:#c75146;}.cls-5{fill:#9d2b25;}.cls-6,.cls-7{fill:#283043;}.cls-7{opacity:0.7;}.cls-8{fill:#a4b3c8;}</style></defs><g id="Capa_2" data-name="Capa 2"><g id="Capa_1-2" data-name="Capa 1"><rect class="cls-1" x="109.07" y="89.19" width="339.98" height="229" rx="9.84"/><path class="cls-2" d="M118.91,89.19h320.3A9.84,9.84,0,0,1,449.05,99V290a0,0,0,0,1,0,0h-340a0,0,0,0,1,0,0V99A9.84,9.84,0,0,1,118.91,89.19Z"/><rect class="cls-3" x="122.29" y="102.93" width="315.32" height="171.22"/><rect class="cls-1" x="244.71" y="318.19" width="70.68" height="34.13"/><path class="cls-2" d="M218.92,352.32H340.53a4.59,4.59,0,0,1,4.59,4.59v4a0,0,0,0,1,0,0H214.33a0,0,0,0,1,0,0v-4A4.59,4.59,0,0,1,218.92,352.32Z"/><circle class="cls-2" cx="281.21" cy="306.85" r="6.72"/><rect class="cls-4" x="149.81" y="129.14" width="260.49" height="28.36" rx="6.48"/><rect class="cls-5" x="187.71" y="184.79" width="44.74" height="5.34" rx="1.45"/><rect class="cls-5" x="237.72" y="184.79" width="101.24" height="5.34" rx="1.45"/><rect class="cls-5" x="149.81" y="201.11" width="17.55" height="5.34" rx="1.45"/><rect class="cls-5" x="149.81" y="233.74" width="154.4" height="5.34" rx="1.45"/><rect class="cls-5" x="250.7" y="217.42" width="19.65" height="5.34" rx="1.45"/><rect class="cls-5" x="276.14" y="217.42" width="62.81" height="5.34" rx="1.45"/><rect class="cls-6" x="149.81" y="184.79" width="31.23" height="5.34" rx="1.45"/><rect class="cls-6" x="149.81" y="217.42" width="94.75" height="5.34" rx="1.45"/><rect class="cls-6" x="318.51" y="233.74" width="19.74" height="5.34" rx="1.45"/><rect class="cls-6" x="173.5" y="201.11" width="151.25" height="5.34" rx="1.45"/><rect class="cls-7" x="68.18" y="263.6" width="81.8" height="127.78" rx="9.36"/><path class="cls-8" d="M109,313.76a15.91,15.91,0,0,0-15.48,19.32v0l0,.11a21.42,21.42,0,0,0,2.53,5.43l.41.7a22.74,22.74,0,0,1,3.53,10.95,3.81,3.81,0,0,0,3.91,3.5h10.12a3.87,3.87,0,0,0,3.92-3.5,22.64,22.64,0,0,1,3.53-10.95l.41-.7a21.7,21.7,0,0,0,2.53-5.42l0-.11v-.05A15.87,15.87,0,0,0,109,313.76Zm13.67,19,0,.1v0a20.48,20.48,0,0,1-2.32,4.87l-.41.7a24.43,24.43,0,0,0-3.78,11.78,2,2,0,0,1-2.07,1.75H104a2,2,0,0,1-2.07-1.75,24.33,24.33,0,0,0-3.77-11.78l-.41-.7a20.1,20.1,0,0,1-2.32-4.87v0l0-.1a14,14,0,1,1,27.33,0Z"/><path class="cls-8" d="M115.93,355h-13.8a1.16,1.16,0,0,0,0,2.31h13.8a1.16,1.16,0,1,0,0-2.31Z"/><path class="cls-8" d="M113.69,358.33h-9.31a1.16,1.16,0,0,0,0,2.31h9.31a1.16,1.16,0,0,0,0-2.31Z"/><path class="cls-8" d="M112.82,362.12h-7.57a1.16,1.16,0,1,0,0,2.31h7.57a1.16,1.16,0,1,0,0-2.31Z"/><path class="cls-8" d="M115.78,321.61a11.51,11.51,0,0,0-3.58-1.88,1.15,1.15,0,0,0-.6,2.23,9.24,9.24,0,0,1,6.3,7.59,1.16,1.16,0,0,0,1.14,1l.18,0a1.14,1.14,0,0,0,1-1.31A11.51,11.51,0,0,0,115.78,321.61Z"/><path class="cls-8" d="M109.07,309.67a1.15,1.15,0,0,0,1.15-1.16V298.37a1.15,1.15,0,1,0-2.3,0v10.14A1.15,1.15,0,0,0,109.07,309.67Z"/><path class="cls-8" d="M124.41,305a1.17,1.17,0,0,0-1.51.62l-2.74,6.6a1.16,1.16,0,0,0,.63,1.51,1.12,1.12,0,0,0,.44.09,1.14,1.14,0,0,0,1.06-.72l2.74-6.59A1.15,1.15,0,0,0,124.41,305Z"/><path class="cls-8" d="M138.17,314a1.15,1.15,0,0,0-1.6-.31l-8.43,5.65a1.16,1.16,0,0,0,.65,2.12,1.18,1.18,0,0,0,.64-.2l8.42-5.65A1.17,1.17,0,0,0,138.17,314Z"/><path class="cls-8" d="M96.92,313.83a1.12,1.12,0,0,0,.44-.09,1.16,1.16,0,0,0,.63-1.51l-2.74-6.6a1.16,1.16,0,0,0-2.14.89l2.74,6.59A1.17,1.17,0,0,0,96.92,313.83Z"/><path class="cls-8" d="M81.58,313.73A1.15,1.15,0,0,0,80,314a1.17,1.17,0,0,0,.31,1.61l8.43,5.65a1.18,1.18,0,0,0,.64.2,1.16,1.16,0,0,0,.65-2.12Z"/><path class="cls-8" d="M80.4,280.56l3-2.86,2.86,3a.82.82,0,0,0,1.17,0,.82.82,0,0,0,0-1.16l-2.86-3,3-2.86a.83.83,0,0,0-1.14-1.2l-3,2.86-2.86-3a.82.82,0,0,0-1.2,1.13l2.87,3-3,2.87a.82.82,0,0,0,0,1.16.84.84,0,0,0,.6.26A.83.83,0,0,0,80.4,280.56Z"/><rect class="cls-7" x="335.02" y="309.78" width="215.98" height="32.07" rx="8.74"/><path class="cls-8" d="M356.33,319.42a.82.82,0,0,0-1.16,0l-3.51,3.33-3.33-3.51a.83.83,0,0,0-1.17,0,.82.82,0,0,0,0,1.16l3.33,3.52-3.52,3.33a.82.82,0,0,0,.57,1.42.85.85,0,0,0,.57-.23l3.51-3.33,3.33,3.52a.82.82,0,0,0,.6.25.82.82,0,0,0,.6-1.39l-3.33-3.51,3.51-3.33A.81.81,0,0,0,356.33,319.42Z"/><path class="cls-8" d="M532.48,320.09H374.32a5.23,5.23,0,0,0-5.23,5.23v1a5.23,5.23,0,0,0,5.23,5.23H532.48a5.24,5.24,0,0,0,5.23-5.23v-1A5.24,5.24,0,0,0,532.48,320.09Zm3.58,6.23a3.59,3.59,0,0,1-3.58,3.58H508.93a4.39,4.39,0,0,0,1.86-3.58v-1a4.39,4.39,0,0,0-1.86-3.58h23.55a3.59,3.59,0,0,1,3.58,3.58Z"/><rect class="cls-7" x="424.74" y="147.59" width="114.69" height="118.11" rx="9.36"/><path class="cls-8" d="M491.29,227.17c-1.16-1.4-2.34-2.79-3.42-4.07.81-1.72,1.57-3.36,2.37-5a.78.78,0,0,1,.61-.23c1.58.12,3.18.21,4.75.42a2.79,2.79,0,0,0,3.19-1.52q.42-4.83.85-9.64a2.81,2.81,0,0,0-2.88-2.06c-1.79-.08-3.58-.29-5.34-.45-.58-1.77-1.15-3.51-1.75-5.32L490,199c1.41-1.18,2.83-2.36,4.23-3.55a2.36,2.36,0,0,0,.33-3.56q-2.62-3.18-5.3-6.32a2.39,2.39,0,0,0-3.53-.28l-4.62,3.88c-1.6-.78-3.14-1.52-4.65-2.3a.77.77,0,0,1-.23-.61c.13-1.71.23-3.43.46-5.13a2.81,2.81,0,0,0-1.52-3.19l-9.65-.84a2.79,2.79,0,0,0-2.06,2.87c-.1,1.85-.31,3.7-.47,5.49l-5.3,1.63c-1.18-1.42-2.42-2.89-3.65-4.36a2.5,2.5,0,0,0-4-.37l-5.75,4.83c-1.59,1.34-1.7,2.54-.37,4.12l3.46,4.11c-.82,1.58-1.61,3.05-2.34,4.54-.2.42-.39.58-.87.53-1.75-.18-3.5-.34-5.25-.47a2.34,2.34,0,0,0-2.67,2.29c-.23,2.66-.4,5.33-.72,8a2.53,2.53,0,0,0,2.47,3c1.65.08,3.3.26,5,.43a.7.7,0,0,1,.52.34c.53,1.77,1,3.55,1.54,5.43-1.27,1.06-2.66,2.21-4,3.37a2.39,2.39,0,0,0-.35,3.73l5.1,6.08a2.45,2.45,0,0,0,3.75.34c1.24-1,2.48-2.06,3.71-3.11a.59.59,0,0,1,.8-.07c1.44.8,2.89,1.57,4.37,2.29a.66.66,0,0,1,.46.79c-.16,1.6-.3,3.21-.42,4.82a2.36,2.36,0,0,0,2.37,2.78c2.61.23,5.24.4,7.84.71a2.54,2.54,0,0,0,3-2.55c.07-1.59.26-3.17.42-4.76a.7.7,0,0,1,.36-.5c1.76-.56,3.53-1.09,5.4-1.65q1.68,2,3.34,4A2.47,2.47,0,0,0,485,236q3-2.46,5.89-4.94Q493.08,229.28,491.29,227.17Zm-1.62,2.36q-3,2.46-5.95,5c-.4.34-.67.33-1-.09-1.46-1.77-2.94-3.52-4.46-5.33a23.43,23.43,0,0,1-7.7,2.58c-.15,0-.34.36-.36.57-.2,2.06-.37,4.12-.56,6.18-.07.81-.1.84-.9.77l-7.54-.66c-.75-.06-.79-.12-.73-.88.2-2.22.39-4.45.59-6.71a23.35,23.35,0,0,1-7.52-3.94l-4,3.31-1.37,1.16a.5.5,0,0,1-.84-.05c-1.73-2.06-3.45-4.12-5.19-6.18-.3-.36-.18-.6.14-.87l4.95-4.14c.23-.2.41-.35.22-.71a22.48,22.48,0,0,1-2.22-7.43,1.61,1.61,0,0,0-.08-.23l-.65-.06c-2.08-.18-4.16-.38-6.24-.54-.59,0-.79-.23-.73-.84.24-2.55.47-5.1.67-7.66,0-.56.25-.74.82-.69,2.34.23,4.69.42,7.11.63a23.3,23.3,0,0,1,3.91-7.19l-4.49-5.35c-.67-.8-.67-.81.14-1.49,1.89-1.58,3.78-3.15,5.65-4.75.45-.39.73-.36,1.11.1,1.44,1.76,2.93,3.48,4.37,5.24a.59.59,0,0,0,.87.19,20.85,20.85,0,0,1,6.54-2c.47-.06.64-.25.67-.73.17-2.27.4-4.53.57-6.8.05-.59.24-.79.84-.74,2.56.25,5.11.47,7.67.68.55,0,.74.24.69.82-.24,2.46-.44,4.94-.67,7.49a23.35,23.35,0,0,1,7.06,3.68l2.38-2c1.14-1,2.29-1.91,3.42-2.88.35-.3.62-.33.93,0,1.7,2,3.4,4.06,5.11,6.08.35.41.22.68-.14,1-1.72,1.42-3.42,2.87-5.14,4.3a4.25,4.25,0,0,1-.58.35,3.83,3.83,0,0,0,.21.51A22.39,22.39,0,0,1,489.5,206c.06.39.21.51.58.54,2.27.18,4.54.4,6.8.58.57,0,.76.24.7.81-.24,2.57-.47,5.15-.68,7.72,0,.54-.26.7-.79.65-2.2-.21-4.41-.38-6.61-.6-.43,0-.62.06-.75.48a21.41,21.41,0,0,1-3.23,6.44.56.56,0,0,0,0,.84c1.41,1.65,2.78,3.33,4.2,5C490.13,228.89,490.1,229.17,489.67,229.53Z"/><path class="cls-8" d="M468.87,194.69a14.57,14.57,0,1,0,13.2,15.79A14.59,14.59,0,0,0,468.87,194.69Zm11.19,15.63a12.55,12.55,0,1,1-11.4-13.62A12.53,12.53,0,0,1,480.06,210.32Z"/><path class="cls-8" d="M528.07,225.82a1.72,1.72,0,0,0-2.07-.7c-1.08.27-2.17.47-3.24.69l-2-2.82.14-.23,1.86-2.86a1.46,1.46,0,0,0-.44-2.16c-1.42-.94-2.84-1.87-4.28-2.78a1.46,1.46,0,0,0-2.13.47c-.69,1-1.38,2.11-2,3.12-1.09-.18-2.13-.34-3.16-.52-.1,0-.22-.2-.24-.32-.24-1-.49-2.07-.66-3.11a1.71,1.71,0,0,0-1.47-1.61l-5.85,1.23a1.72,1.72,0,0,0-.7,2.07c.27,1.11.48,2.24.71,3.33l-2.84,1.91-2.94-1.91a1.54,1.54,0,0,0-2.41.49L491.8,224a1.54,1.54,0,0,0,.52,2.5l2.79,1.8c-.2,1.09-.4,2.09-.57,3.11,0,.28-.12.41-.42.47-1.06.2-2.12.43-3.18.67a1.43,1.43,0,0,0-1.16,1.83c.34,1.61.72,3.21,1,4.83a1.55,1.55,0,0,0,2,1.3c1-.24,2-.43,3-.63.12,0,.32,0,.37.11.63.95,1.24,1.91,1.89,2.93l-1.78,2.71a1.49,1.49,0,0,0,.47,2.27l4.11,2.67a1.5,1.5,0,0,0,2.27-.47c.55-.83,1.1-1.67,1.63-2.51a.36.36,0,0,1,.46-.18q1.5.32,3,.57c.26,0,.36.12.41.38.2,1,.4,1.95.62,2.92a1.46,1.46,0,0,0,1.9,1.22c1.59-.34,3.16-.71,4.76-1a1.58,1.58,0,0,0,1.32-2c-.24-1-.42-1.92-.61-2.88a.44.44,0,0,1,.13-.37c.93-.65,1.88-1.28,2.89-2l2.68,1.74a1.53,1.53,0,0,0,2.35-.5l2.59-4a1.51,1.51,0,0,0-.49-2.38L524,237.36c.17-1.17.32-2.27.5-3.37,0-.1.2-.22.32-.25,1-.21,1.91-.45,2.88-.61a1.7,1.7,0,0,0,1.61-1.47Zm-17,14.55a7.74,7.74,0,1,1,6-9.16A7.73,7.73,0,0,1,511.09,240.37Z"/><path class="cls-8" d="M438.83,160.71l2.6,2.75a.82.82,0,0,0,1.2-1.13L440,159.58l2.75-2.6a.83.83,0,0,0,0-1.17.82.82,0,0,0-1.16,0l-2.75,2.6-2.6-2.75a.84.84,0,0,0-1.17,0,.83.83,0,0,0,0,1.17l2.6,2.75-2.74,2.6a.82.82,0,0,0,0,1.16.84.84,0,0,0,.6.26.89.89,0,0,0,.57-.22Z"/><rect class="cls-7" x="300.98" width="101.29" height="102.04" rx="9.36"/><path class="cls-8" d="M324.74,19.94l-3.68-3.89,3.88-3.67a.82.82,0,1,0-1.13-1.2l-3.88,3.68L316.25,11a.84.84,0,0,0-1.17,0,.83.83,0,0,0,0,1.17L318.73,16l-3.88,3.68a.82.82,0,0,0,0,1.17.83.83,0,0,0,1.16,0l3.89-3.68,3.68,3.88a.8.8,0,0,0,.59.26.83.83,0,0,0,.6-1.39Z"/><path class="cls-8" d="M351.62,28.72A26.78,26.78,0,1,0,378.4,55.49,26.8,26.8,0,0,0,351.62,28.72Zm0,50.25A23.48,23.48,0,1,1,375.1,55.49,23.51,23.51,0,0,1,351.62,79Z"/><path class="cls-8" d="M360.37,49l-7.51,4.94V40.67a1.24,1.24,0,1,0-2.47,0V55.86a1.44,1.44,0,0,0,.75,1.26,1.46,1.46,0,0,0,1.47-.06l9.12-6A1.23,1.23,0,1,0,360.37,49Z"/><rect class="cls-7" y="39.61" width="142.95" height="105.61" rx="9.36"/><path class="cls-8" d="M24.81,51.23a.82.82,0,0,0-1.16,0l-4,3.83-3.83-4a.83.83,0,0,0-1.17,0,.84.84,0,0,0,0,1.17l3.83,4-4,3.83a.82.82,0,0,0,.57,1.42.8.8,0,0,0,.56-.23l4.05-3.82,3.82,4a.83.83,0,1,0,1.2-1.14l-3.83-4,4-3.83A.81.81,0,0,0,24.81,51.23Z"/><path class="cls-8" d="M56.53,74.32a13.57,13.57,0,0,0-9.2,5,.83.83,0,0,0,.13,1.16.82.82,0,0,0,1.15-.12,12,12,0,0,1,16.92-1.8.83.83,0,0,0,1.16-.12.82.82,0,0,0-.12-1.16A13.58,13.58,0,0,0,56.53,74.32Z"/><path class="cls-8" d="M105.6,121.06a3.42,3.42,0,0,0-1.26-2.31L77.49,97.06a21.6,21.6,0,0,0-6-25.92h0a21.57,21.57,0,1,0-13.6,38.35,22.87,22.87,0,0,0,2.33-.12A21.58,21.58,0,0,0,71,105.08l26.85,21.68a3.39,3.39,0,0,0,2.15.77l.37,0a3.46,3.46,0,0,0,2.31-1.26l2.16-2.67A3.42,3.42,0,0,0,105.6,121.06Zm-45.69-15A18.27,18.27,0,1,1,69.46,73.7h0A18.3,18.3,0,0,1,73.3,97.87l-2.37,2.93A18.13,18.13,0,0,1,59.91,106.09Zm40.22,18.09-.19,0L73.51,102.86c.43-.45.85-.9,1.24-1.39s.75-1,1.1-1.5l26.42,21.34,0,.2Z"/></g></g></svg>