<svg xmlns="http://www.w3.org/2000/svg" viewBox="0 0 569.04 359.51"><defs><style>.cls-1{fill:#651411;}.cls-2{fill:#210a0b;}.cls-3{fill:#c61a27;}.cls-4{fill:#9096ad;opacity:0.8;}.cls-5{fill:#283043;}</style></defs><g id="Capa_2" data-name="Capa 2"><g id="Capa_1-2" data-name="Capa 1"><path class="cls-1" d="M569,260.33a6.34,6.34,0,0,1-3.36,5.63L433.06,337.31a14,14,0,0,1-13.59-.22L149.32,182.48a9.83,9.83,0,0,1,0-17l5.07-2.9,100-56.87a46.2,46.2,0,0,1,46.27-.49L558,250.34l7.85,4.43A6.32,6.32,0,0,1,569,260.33Z"/><path class="cls-2" d="M569,260.33v12.5a17.06,17.06,0,0,1-8.71,14.88L437,357a21.36,21.36,0,0,1-20.72-.3L153.39,205.85a17.92,17.92,0,0,1-9-15.55V174a9.77,9.77,0,0,0,4.92,8.53L419.47,337.09a14,14,0,0,0,13.59.22L565.68,266A6.34,6.34,0,0,0,569,260.33Z"/><path class="cls-3" d="M178.68,173.47,274,120.86a23.37,23.37,0,0,1,22.87.15L516.53,246.14a3.79,3.79,0,0,1,0,6.6L413.75,310.42a10.22,10.22,0,0,1-10.1-.07l-225-130A4,4,0,0,1,178.68,173.47Z"/><ellipse class="cls-2" cx="483.4" cy="291.34" rx="11.19" ry="7.68"/><path class="cls-4" d="M404.65,96.38c-2.9,1.46-5.8,2.81-8.68,3.94,2.24,15-17.57,21.88-18.73,22.24,5.11-4.58,3.3-12.25,1.47-17-18,3.67-32.54.8-36.45-6.84C336.6,87.67,352.52,68,381,53.48s57.6-11,63.25.09S433.13,81.83,404.65,96.38Z"/><path class="cls-5" d="M373.86,124.5l2.83-2.55c4.6-4.12,3-11.17,1.5-15.4-17.9,3.5-32.59.55-36.67-7.42-6.09-11.95,10.72-31.89,39.11-46.39,13.19-6.74,27.61-10.15,40.59-9.66,11.9.47,20.78,4.25,23.77,10.11a12,12,0,0,1,.45,9.41C442.07,73,427,85.9,405,97.11h0c-2.94,1.49-5.62,2.72-8.15,3.74,1.73,15.64-19.16,22.43-19.38,22.5Zm5.37-19.84.25.64c1.49,3.83,3.24,10.4.37,15.36,5.52-2.44,17-8.92,15.31-20.22l-.1-.65.61-.24c2.66-1,5.47-2.32,8.61-3.91,21.56-11,36.36-23.55,39.59-33.54a10.42,10.42,0,0,0-.35-8.16c-2.67-5.24-11.24-8.77-22.37-9.21-12.71-.53-26.83,2.87-39.77,9.48-27.1,13.84-44,33.24-38.39,44.18,3.73,7.28,18.35,9.92,35.56,6.41Z"/><path class="cls-5" d="M360,82.08a.82.82,0,0,1-.39-1.54l51-28.09a.83.83,0,0,1,.8,1.45L360.35,82A.79.79,0,0,1,360,82.08Z"/><path class="cls-5" d="M371.92,98.08a.83.83,0,0,1-.4-1.55l51-28.08a.8.8,0,0,1,1.11.32.82.82,0,0,1-.32,1.12L372.31,98A.7.7,0,0,1,371.92,98.08Z"/><path class="cls-5" d="M362.39,91.52A.83.83,0,0,1,362,90l61.6-33a.82.82,0,1,1,.78,1.45l-61.6,33A.76.76,0,0,1,362.39,91.52Z"/><path class="cls-4" d="M93.88,171.56a37.34,37.34,0,0,0,39.51.28c-8.66,1-18.84-6-24.79-10.87,12.7-12.34,12.09-24.4,5.4-35.21-8.73-14.13-37-19.53-76-3.36C.69,137.85-6.32,165.79,7.14,178.4S59,194.66,93.88,171.56Z"/><path class="cls-5" d="M40.57,189.16c-15.2,0-27.62-4.18-34-10.16C1.22,174-1,166.52.43,158.54,3.08,144,17,130.2,37.69,121.64c40.88-16.94,68.58-10,77,3.69,7.75,12.55,6.11,24.51-4.88,35.58,5.53,4.43,15.3,11.05,23.47,10.11l3.22-.37-2.66,1.86a38.15,38.15,0,0,1-40,0C75.59,184.54,56.55,189.16,40.57,189.16Zm41-75.88c-11.79,0-26.36,2.88-43.26,9.88C18.16,131.51,4.6,144.85,2.05,158.84c-1.35,7.42.71,14.33,5.66,19,12.72,11.95,50.57,16.36,85.72-6.92l.43-.29.45.27a36.38,36.38,0,0,0,35.9,1.83c-7.81-.64-16.17-6.19-22.13-11.09l-.72-.58.66-.64c11-10.64,12.73-22.14,5.28-34.19C108.64,118.65,97.7,113.28,81.58,113.28Z"/><path class="cls-4" d="M211.39,77.06l72.37-41.79a2.39,2.39,0,0,0,0-4.15l-53-30a2.41,2.41,0,0,0-2.34,0l-73,40.5a2.39,2.39,0,0,0,0,4.15L209,77.05A2.37,2.37,0,0,0,211.39,77.06Z"/><path class="cls-5" d="M284.15,30.4l-53-30A3.22,3.22,0,0,0,228,.4l-73,40.5a3.17,3.17,0,0,0-1.62,2.53,0,0,0,0,1,0,0c0,.07,0,.14,0,.22s0,0,0,.07h0A3.19,3.19,0,0,0,155,46.49l53.59,31.27a3.08,3.08,0,0,0,1.62.44,3.15,3.15,0,0,0,1.6-.43L284.17,36a3.18,3.18,0,0,0,1.61-2.79A3.22,3.22,0,0,0,284.15,30.4ZM155.85,42.34,228.51,2,222.3,34.24l-66.86,8.44A1.69,1.69,0,0,1,155.85,42.34Zm127.5-7.78L211,76.35a1.57,1.57,0,0,1-1.57,0L155.82,45.06a1.55,1.55,0,0,1-.63-.69l68.5-8.64,6.52-33.84a.27.27,0,0,0,0-.09l.13.05,53,30a1.54,1.54,0,0,1,.8,1.36A1.57,1.57,0,0,1,283.35,34.56Z"/><path class="cls-5" d="M60.41,170.07a20.87,20.87,0,0,1-11.71-6.28C46,161,43.46,158,41,155s-3.8-6.11-3.49-9.51a17.5,17.5,0,0,1,1.61-5.28c.79-1.8,3-2.21,5-2.65a2.41,2.41,0,0,1,1.53.5A7.49,7.49,0,0,1,49,145.68c0,.4-.86.9-1.44,1-1.71.3-2.1,1.19-1.66,2.41a13.81,13.81,0,0,0,1.78,3.84,74.93,74.93,0,0,0,6,6.84,20.75,20.75,0,0,0,4,2.76,1.86,1.86,0,0,0,2.53-.31c1.61-1.59,1.68-1.56,4.16-.74a10,10,0,0,1,5.75,4.36,1.64,1.64,0,0,1-.29,2.2C67.37,170.77,63.89,170.54,60.41,170.07Z"/><path class="cls-5" d="M68.46,156.12l-.19,0a.84.84,0,0,1-.61-1,10.8,10.8,0,0,0-1.43-8.28,13.54,13.54,0,0,0-8.49-5.89.82.82,0,1,1,.36-1.6A15.19,15.19,0,0,1,67.63,146a12.47,12.47,0,0,1,1.63,9.54A.82.82,0,0,1,68.46,156.12Z"/><path class="cls-5" d="M76.52,156.4a.63.63,0,0,1-.19,0,.81.81,0,0,1-.61-1,14.79,14.79,0,0,0-2-11.27,21,21,0,0,0-13.2-9,.82.82,0,0,1-.62-1,.81.81,0,0,1,1-.62,22.52,22.52,0,0,1,14.23,9.72,16.38,16.38,0,0,1,2.22,12.53A.83.83,0,0,1,76.52,156.4Z"/><path class="cls-5" d="M83.09,154.63l-.19,0a.83.83,0,0,1-.61-1A17.94,17.94,0,0,0,79.85,140a25.32,25.32,0,0,0-16-10.89.82.82,0,1,1,.37-1.6,27,27,0,0,1,17,11.61A19.56,19.56,0,0,1,83.89,154,.83.83,0,0,1,83.09,154.63Z"/></g></g></svg>